<?xml version="1.0" encoding="UTF-8"?>
<svg version="1.1" xmlns="http://www.w3.org/2000/svg" width="500" height="500">
<path d="M0 0 C3.37153907 1.3011591 6.03400311 2.57790339 8.86328125 4.8359375 C9.57653564 5.39909668 10.28979004 5.96225586 11.0246582 6.54248047 C11.779646 7.14721191 12.53463379 7.75194336 13.3125 8.375 C14.93659532 9.65739657 16.56161183 10.93862727 18.1875 12.21875 C18.99960937 12.85941406 19.81171875 13.50007812 20.6484375 14.16015625 C23.99948973 16.7819928 27.39954891 19.33455899 30.8125 21.875 C37.01337708 26.49758543 43.16900879 31.1764436 49.3125 35.875 C56.05441508 41.02835211 62.83891029 46.11435464 69.6875 51.125 C76.82587527 56.34794722 83.83147566 61.7202067 90.79589844 67.17236328 C95.46381504 70.82143122 100.18030231 74.37785487 104.9921875 77.8359375 C115.46829814 85.37329503 125.84312134 93.03702504 136 101 C144.40225231 107.5853503 152.96498977 113.93249201 161.58251953 120.23242188 C173.99201388 129.30581504 186.3078392 138.47088825 198.44824219 147.90185547 C201.21099969 150.04461621 203.98018621 152.17887104 206.75 154.3125 C207.62575684 154.99489746 208.50151367 155.67729492 209.40380859 156.38037109 C219.84791919 164.40563753 229.43962588 170.15464092 243 169 C250.47970167 167.5279555 255.8710084 164.4677559 261.8125 159.8125 C262.61727783 159.20100098 263.42205566 158.58950195 264.2512207 157.95947266 C265.96301278 156.65623817 267.66987396 155.3465048 269.37207031 154.03076172 C272.01649648 151.98725216 274.67393095 149.96194789 277.3359375 147.94140625 C280.89637917 145.23754872 284.45228963 142.52793903 288.00390625 139.8125 C298.07015922 132.12254909 308.22777793 124.56058563 318.4375 117.0625 C326.60384289 111.06159958 334.67021034 104.94012434 342.70458984 98.76416016 C365.12725906 81.53099618 365.12725906 81.53099618 374.8996582 74.65112305 C380.96811712 70.35871111 386.8360338 65.80902856 392.7265625 61.27734375 C396.71019544 58.21460025 400.72413693 55.19441519 404.75 52.1875 C411.02819085 47.49498101 417.26959338 42.75575748 423.5 38 C430.26810027 32.83407202 437.04763227 27.68546799 443.87817383 22.60229492 C447.78049706 19.6910379 451.64055047 16.7314992 455.48046875 13.73828125 C456.42599609 13.00544922 457.37152344 12.27261719 458.34570312 11.51757812 C460.20559437 10.07440478 462.06000892 8.62413869 463.90820312 7.16601562 C464.75705078 6.50923828 465.60589844 5.85246094 466.48046875 5.17578125 C467.23223389 4.58708252 467.98399902 3.99838379 468.75854492 3.3918457 C471.21153123 1.86864835 473.18102623 1.49335094 476 1 C476.09349672 29.88557881 476.16400548 58.77113489 476.20724869 87.6568346 C476.21135461 90.32843345 476.21549326 93.00003221 476.21972656 95.67163086 C476.2207758 96.33565254 476.22182505 96.99967422 476.22290608 97.68381777 C476.23920882 107.7540152 476.26728043 117.82413676 476.30175781 127.89428711 C476.34166262 139.58641791 476.36744166 151.27848055 476.37635398 162.97067755 C476.38156249 169.15996374 476.39377944 175.34905496 476.42292023 181.53827858 C476.45014666 187.36835594 476.45843028 193.19815871 476.45243073 199.02829361 C476.45352772 201.1635519 476.46143821 203.29881974 476.4768219 205.4340229 C476.65707716 231.75219738 476.65707716 231.75219738 467 242 C454.33110266 253.75206924 437.48600452 252.15105415 421.30029297 252.13371277 C419.63206875 252.13558412 417.96384497 252.13788611 416.29562187 252.14057809 C411.73966056 252.14666207 407.1837177 252.14656654 402.62775326 252.14538372 C397.70335041 252.14517885 392.77895334 252.15070649 387.85455322 252.15544128 C378.21876192 252.16372889 368.58297674 252.16649524 358.94718218 252.16705366 C351.11385543 252.16752957 343.2805307 252.16958801 335.44720459 252.17275429 C313.22252783 252.18155443 290.9978559 252.18617447 268.77317739 252.18542381 C267.57636869 252.18538386 266.37956 252.1853439 265.14648438 252.18530273 C263.94820975 252.18526185 262.74993513 252.18522097 261.51534915 252.18517885 C242.08583198 252.1847722 222.65633418 252.19434827 203.22682261 252.2084411 C183.2613243 252.22280815 163.29583542 252.22971116 143.3303318 252.22884732 C132.12725633 252.22851555 120.92420118 252.23125438 109.72113037 252.24202538 C100.18583206 252.25113452 90.65056329 252.25330207 81.11526251 252.24651595 C76.25303202 252.24325333 71.3908582 252.2431849 66.52863312 252.2518692 C62.07263097 252.25974602 57.61673031 252.25829071 53.1607306 252.24958507 C51.55388731 252.24805273 49.9470364 252.24985615 48.34020209 252.25544515 C34.46567695 252.30048585 20.40547368 252.31181277 9.4453125 242.609375 C2.02586424 234.3477191 -0.31424623 225.42795224 -0.24050903 214.65431213 C-0.24221788 213.73361543 -0.24392673 212.81291873 -0.24568737 211.86432213 C-0.24897211 208.79040875 -0.23799525 205.71671541 -0.22705078 202.64282227 C-0.22648645 200.43492132 -0.22680366 198.22701999 -0.22793579 196.01911926 C-0.22850944 190.03208848 -0.21675305 184.04513789 -0.20278788 178.05812573 C-0.19028263 171.79875931 -0.18911018 165.53939103 -0.18673706 159.28001404 C-0.18122779 148.77626248 -0.16873663 138.27253571 -0.15087891 127.76879883 C-0.13250823 116.95206855 -0.11835754 106.13534626 -0.10986328 95.31860352 C-0.10933783 94.65135557 -0.10881239 93.98410763 -0.10827102 93.29664005 C-0.10566086 89.94910258 -0.10313346 86.60156505 -0.10064721 83.25402749 C-0.07974393 55.50266453 -0.04456682 27.75133433 0 0 Z " fill="#00DE37" transform="translate(12,145)"/>
<path d="M0 0 C0.69955718 -0.00175304 1.39911436 -0.00350607 2.11987025 -0.00531223 C4.45154498 -0.00994447 6.78315659 -0.00751394 9.11483383 -0.00507832 C10.80847943 -0.00694769 12.50212459 -0.0092489 14.19576907 -0.01194364 C18.84057868 -0.01805243 23.48537027 -0.01792913 28.13018298 -0.01674926 C33.14327315 -0.01654502 38.15635756 -0.02206623 43.16944504 -0.02680683 C52.98759747 -0.03510889 62.8057439 -0.03786147 72.62389955 -0.03841921 C80.60558666 -0.03889458 88.5872718 -0.04095037 96.56895828 -0.04411983 C119.20463032 -0.05292518 141.84029761 -0.0575394 164.47597137 -0.05678936 C165.69595065 -0.0567494 166.91592992 -0.05670945 168.17287827 -0.05666828 C169.3943492 -0.0566274 170.61582013 -0.05658652 171.87430534 -0.0565444 C191.6694354 -0.05613796 211.46454644 -0.06570733 231.259671 -0.07980665 C251.59116668 -0.0941736 271.92265308 -0.10107666 292.25415397 -0.10021287 C303.66632246 -0.09988101 315.078471 -0.10262322 326.49063492 -0.11339092 C336.20718915 -0.1225001 345.92371439 -0.12466772 355.64027104 -0.1178815 C360.59563559 -0.11461843 365.55094454 -0.11455196 370.50630379 -0.12323475 C375.04758435 -0.13111 379.58876531 -0.12965783 384.13004348 -0.12095062 C385.7679617 -0.11941789 387.4058874 -0.12122317 389.04379681 -0.12681069 C413.02123205 -0.20315261 413.02123205 -0.20315261 417.95464635 4.20579368 C418.50764433 4.84033113 419.0606423 5.47486859 419.6303978 6.12863445 C414.08675679 11.15297599 408.31798189 15.687771 402.2553978 20.06613445 C394.80488281 25.48890353 394.80488281 25.48890353 387.5678978 31.19113445 C382.42713006 35.38421283 377.03219822 39.20787351 371.64358139 43.07248211 C365.95668436 47.15565307 360.33668296 51.31740233 354.74782944 55.53341961 C349.5093208 59.48122494 344.23090076 63.3724497 338.9428978 67.25363445 C332.51125556 71.97867413 326.14611019 76.7716485 319.83742905 81.65988445 C316.29710095 84.39624242 312.7147521 87.07535238 309.1303978 89.75363445 C302.82814946 94.4630406 296.56767567 99.22486318 290.3178978 104.00363445 C282.86788582 109.69633911 275.35905265 115.29884293 267.79519272 120.83908367 C261.8541172 125.20101083 255.98317313 129.64909701 250.1303978 134.12863445 C241.04264309 141.08220757 231.8847487 147.9358307 222.63186264 154.66842937 C221.31878131 155.62641174 220.01155903 156.59248803 218.7109642 157.56735516 C210.7180506 163.47978883 202.37893845 165.20565169 192.6069603 163.84738445 C183.38595598 161.95215827 175.93856068 156.08628021 168.7553978 150.31613445 C167.17307486 149.06485568 165.58974553 147.81484848 164.0053978 146.56613445 C163.25129623 145.97058758 162.49719467 145.3750407 161.72024155 144.76144695 C158.2744962 142.06925713 154.73297087 139.51779161 151.18117905 136.9684782 C146.84638639 133.84185134 142.58791186 130.61352466 138.31838608 127.39865398 C135.17534728 125.03387415 132.02745046 122.67556826 128.8803978 120.31613445 C127.51058651 119.28881686 126.14079502 118.26147288 124.7710228 117.2341032 C124.08588608 116.72025066 123.40074936 116.20639812 122.69485092 115.6769743 C120.66815821 114.15695477 118.6414655 112.63693523 116.6147728 111.1169157 C115.95743149 110.62392986 115.30009018 110.13094402 114.62282944 109.62301922 C113.28860426 108.62230946 111.95445781 107.62149473 110.62038803 106.62057781 C107.35080479 104.16769523 104.08001972 101.71645745 100.80617905 99.26925945 C93.11148664 93.51362563 85.45403661 87.71177735 77.8178978 81.87863445 C71.70400997 77.20988687 65.57550003 72.58033276 59.32961655 68.08957195 C55.90104379 65.5987709 52.51620436 63.0521219 49.1303978 60.50363445 C43.07361581 55.94627977 36.98678922 51.43178693 30.8803978 46.94113445 C19.90924107 38.86651984 9.02387896 30.70516967 -1.69968033 22.30295086 C-5.14865021 19.60596226 -8.60354933 16.93225632 -12.15475845 14.37082195 C-12.71485611 13.96476727 -13.27495377 13.55871258 -13.85202408 13.1403532 C-15.32151403 12.08319233 -16.80028359 11.03896335 -18.27975845 9.99582195 C-20.49844528 8.01351858 -21.0525418 7.04041364 -21.3696022 4.12863445 C-14.50582843 0.18196454 -7.74848439 0.00440543 0 0 Z " fill="#00DE37" transform="translate(51.36960220336914,102.87136554718018)"/>
<path d="M0 0 C0.69955718 -0.00175304 1.39911436 -0.00350607 2.11987025 -0.00531223 C4.45154498 -0.00994447 6.78315659 -0.00751394 9.11483383 -0.00507832 C10.80847943 -0.00694769 12.50212459 -0.0092489 14.19576907 -0.01194364 C18.84057868 -0.01805243 23.48537027 -0.01792913 28.13018298 -0.01674926 C33.14327315 -0.01654502 38.15635756 -0.02206623 43.16944504 -0.02680683 C52.98759747 -0.03510889 62.8057439 -0.03786147 72.62389955 -0.03841921 C80.60558666 -0.03889458 88.5872718 -0.04095037 96.56895828 -0.04411983 C119.20463032 -0.05292518 141.84029761 -0.0575394 164.47597137 -0.05678936 C165.69595065 -0.0567494 166.91592992 -0.05670945 168.17287827 -0.05666828 C169.3943492 -0.0566274 170.61582013 -0.05658652 171.87430534 -0.0565444 C191.6694354 -0.05613796 211.46454644 -0.06570733 231.259671 -0.07980665 C251.59116668 -0.0941736 271.92265308 -0.10107666 292.25415397 -0.10021287 C303.66632246 -0.09988101 315.078471 -0.10262322 326.49063492 -0.11339092 C336.20718915 -0.1225001 345.92371439 -0.12466772 355.64027104 -0.1178815 C360.59563559 -0.11461843 365.55094454 -0.11455196 370.50630379 -0.12323475 C375.04758435 -0.13111 379.58876531 -0.12965783 384.13004348 -0.12095062 C385.7679617 -0.11941789 387.4058874 -0.12122317 389.04379681 -0.12681069 C413.02123205 -0.20315261 413.02123205 -0.20315261 417.95464635 4.20579368 C418.50764433 4.84033113 419.0606423 5.47486859 419.6303978 6.12863445 C418.34412069 7.30124056 417.05119997 8.46656276 415.7553978 9.62863445 C415.03610092 10.27832195 414.31680405 10.92800945 413.5757103 11.59738445 C411.6303978 13.12863445 411.6303978 13.12863445 409.6303978 13.12863445 C409.3003978 11.80863445 408.9703978 10.48863445 408.6303978 9.12863445 C410.6103978 9.62363445 410.6103978 9.62363445 412.6303978 10.12863445 C412.6303978 9.13863445 412.6303978 8.14863445 412.6303978 7.12863445 C413.2903978 7.12863445 413.9503978 7.12863445 414.6303978 7.12863445 C414.3003978 6.13863445 413.9703978 5.14863445 413.6303978 4.12863445 C410.11253512 2.95601356 407.35246563 3.00203284 403.63783836 3 C402.918316 2.99824696 402.19879363 2.99649393 401.45746756 2.99468777 C399.02783823 2.99000731 396.59826822 2.9924985 394.16863632 2.99492168 C392.41656996 2.99305474 390.66450402 2.99075451 388.91243875 2.98805636 C384.08319626 2.98191753 379.25397103 2.9820744 374.42472553 2.98325074 C369.22217731 2.98345422 364.01963471 2.97794102 358.81708908 2.97319317 C348.61892699 2.96487469 338.42077068 2.96213779 328.22260548 2.96158079 C319.93610474 2.9611062 311.64960591 2.95905433 303.36310577 2.95588017 C279.887708 2.94707038 256.4123148 2.9424613 232.93691535 2.94321064 C231.03722041 2.94327057 231.03722041 2.94327057 229.0991478 2.94333172 C227.83114458 2.9433726 226.56314135 2.94341348 225.25671379 2.9434556 C204.69995361 2.94386218 184.14321174 2.93429048 163.58645685 2.92019335 C142.49691499 2.90584456 121.40738208 2.89892234 100.31783521 2.89978713 C88.47042212 2.90011961 76.62302822 2.89735005 64.77561951 2.88660908 C54.68947242 2.87752374 44.60335322 2.87531258 34.51720382 2.8821185 C29.36831652 2.88539366 24.21948279 2.88540464 19.07060051 2.87676525 C14.36048252 2.86894315 9.65046097 2.87028745 4.94034545 2.87904938 C3.2330892 2.88059389 1.52582591 2.87873277 -0.18142204 2.87318931 C-2.49618617 2.8661689 -4.81060828 2.87139142 -7.12536049 2.87974548 C-8.41288479 2.87952812 -9.7004091 2.87931075 -11.02694929 2.87908679 C-15.42059713 3.20709708 -18.23928079 3.99831304 -21.3696022 7.12863445 C-21.1821022 5.25363445 -21.1821022 5.25363445 -20.3696022 3.12863445 C-14.45919794 -0.27432558 -6.63968477 0.00377501 0 0 Z " fill="#9AEFAD" transform="translate(51.36960220336914,102.87136554718018)"/>
<path d="M0 0 C-3.99270132 5.03427558 -9.35184492 6.50525589 -15.52523589 7.34245956 C-24.26409698 8.08073038 -32.96525383 8.14024713 -41.72662354 8.12698364 C-43.39769835 8.1281377 -45.06877291 8.12972714 -46.73984694 8.13171089 C-51.30353261 8.13586484 -55.86719722 8.1338314 -60.43088293 8.13072467 C-65.36338788 8.12845478 -70.29588931 8.13195804 -75.22839355 8.13470459 C-84.87888642 8.13914388 -94.5293715 8.13819412 -104.17986467 8.13529195 C-112.02276027 8.13303121 -119.86565368 8.1327283 -127.7085495 8.13381577 C-128.82585978 8.133969 -129.94317006 8.13412223 -131.09433822 8.13428011 C-133.36426197 8.13459984 -135.63418571 8.13492405 -137.90410945 8.1352527 C-159.17192695 8.13810196 -180.43974014 8.13482887 -201.70755693 8.12945233 C-219.95445418 8.12498234 -238.20134506 8.12576291 -256.44824219 8.13037109 C-277.64750325 8.13572239 -298.84676053 8.1378299 -320.04602218 8.13475883 C-322.30625264 8.13444028 -324.5664831 8.13412591 -326.82671356 8.13381577 C-327.93874856 8.13366149 -329.05078356 8.13350721 -330.19651659 8.13334826 C-338.0316086 8.13248496 -345.86669822 8.13394192 -353.70178986 8.13629532 C-363.24744396 8.13909956 -372.79308984 8.13834172 -382.338743 8.13301457 C-387.20856287 8.13038641 -392.07836902 8.1293576 -396.94818878 8.13266373 C-401.40642379 8.13564468 -405.86463237 8.13400383 -410.32286498 8.12868617 C-411.93501993 8.12756972 -413.54717712 8.12813608 -415.15933064 8.13056196 C-417.35282515 8.1336093 -419.54622954 8.13047678 -421.73971939 8.12584114 C-422.95743286 8.12567879 -424.17514634 8.12551644 -425.42976022 8.12534916 C-429.35053833 7.98769279 -433.1156808 7.53905354 -437 7 C-437 6.67 -437 6.34 -437 6 C-296.42 5.67 -155.84 5.34 -11 5 C-11 4.34 -11 3.68 -11 3 C-7.63966885 -0.4947444 -4.66111848 -0.26891068 0 0 Z " fill="#91EEA9" transform="translate(475,389)"/>
<path d="M0 0 C0.09349672 28.88557881 0.16400548 57.77113489 0.20724869 86.6568346 C0.21135461 89.32843345 0.21549326 92.00003221 0.21972656 94.67163086 C0.2207758 95.33565254 0.22182505 95.99967422 0.22290608 96.68381777 C0.23920882 106.7540152 0.26728043 116.82413676 0.30175781 126.89428711 C0.34166262 138.58641791 0.36744166 150.27848055 0.37635398 161.97067755 C0.38156249 168.15996374 0.39377944 174.34905496 0.42292023 180.53827858 C0.45014666 186.36835594 0.45843028 192.19815871 0.45243073 198.02829361 C0.45352772 200.1635519 0.46143821 202.29881974 0.4768219 204.4340229 C0.61882871 225.16773176 0.61882871 225.16773176 -4 234 C-4.33 234 -4.66 234 -5 234 C-5.17016193 231.10724713 -5.04421537 229.11674128 -4.00959206 226.38503838 C-2.74584973 222.14786531 -2.7113389 218.35955315 -2.7215271 213.96438599 C-2.7157347 213.06496147 -2.7099423 212.16553695 -2.70397437 211.23885715 C-2.68699574 208.2309789 -2.68409968 205.2232543 -2.68115234 202.21533203 C-2.6718527 200.05683517 -2.66168398 197.89834191 -2.65071106 195.73985291 C-2.62340113 189.88296461 -2.60825864 184.02610038 -2.59528303 178.16916513 C-2.5796569 172.04722742 -2.55286501 165.92533889 -2.5272522 159.80343628 C-2.48045529 148.21200849 -2.44371555 136.62057145 -2.41057932 125.02909744 C-2.37236442 111.83208103 -2.32295258 98.63511399 -2.27259517 85.4381392 C-2.16926173 58.29212939 -2.08000587 31.14608787 -2 4 C-2.75925781 4.46535156 -3.51851563 4.93070313 -4.30078125 5.41015625 C-7 7 -7 7 -10.1875 8.4375 C-13.10633071 9.71268086 -13.10633071 9.71268086 -14.0625 12.125 C-14.371875 12.74375 -14.68125 13.3625 -15 14 C-17.625 14.75 -17.625 14.75 -20 15 C-20 15.66 -20 16.32 -20 17 C-20.78375 17.0825 -21.5675 17.165 -22.375 17.25 C-25.14749104 17.72806339 -25.14749104 17.72806339 -26.3125 20.0625 C-26.539375 20.701875 -26.76625 21.34125 -27 22 C-27.99 22 -28.98 22 -30 22 C-30.33 23.32 -30.66 24.64 -31 26 C-32.65 26 -34.3 26 -36 26 C-31.79456538 21.55113703 -27.15906277 17.85405327 -22.3125 14.125 C-21.51320068 13.50802246 -20.71390137 12.89104492 -19.89038086 12.25537109 C-3.94415929 0 -3.94415929 0 0 0 Z " fill="#55D775" transform="translate(488,146)"/>
<path d="M0 0 C4.06834505 1.5319629 6.9502702 3.3455567 10.3125 6.125 C11.19550781 6.84945312 12.07851563 7.57390625 12.98828125 8.3203125 C13.65214844 8.87460938 14.31601562 9.42890625 15 10 C14.34 10.66 13.68 11.32 13 12 C13 11.34 13 10.68 13 10 C12.21625 9.9175 11.4325 9.835 10.625 9.75 C8 9 8 9 6.6875 6.9375 C6.3471875 5.9784375 6.3471875 5.9784375 6 5 C4.68 5 3.36 5 2 5 C2.33 77.93 2.66 150.86 3 226 C3.33 226 3.66 226 4 226 C4 228.31 4 230.62 4 233 C-0.2054453 228.7945547 -0.22984734 222.88105477 -0.25816262 217.23365313 C-0.25233693 216.3824706 -0.24651125 215.53128807 -0.24050903 214.65431213 C-0.24221788 213.73361543 -0.24392673 212.81291873 -0.24568737 211.86432213 C-0.24897211 208.79040875 -0.23799525 205.71671541 -0.22705078 202.64282227 C-0.22648645 200.43492132 -0.22680366 198.22701999 -0.22793579 196.01911926 C-0.22850944 190.03208848 -0.21675305 184.04513789 -0.20278788 178.05812573 C-0.19028263 171.79875931 -0.18911018 165.53939103 -0.18673706 159.28001404 C-0.18122779 148.77626248 -0.16873663 138.27253571 -0.15087891 127.76879883 C-0.13250823 116.95206855 -0.11835754 106.13534626 -0.10986328 95.31860352 C-0.10933783 94.65135557 -0.10881239 93.98410763 -0.10827102 93.29664005 C-0.10566086 89.94910258 -0.10313346 86.60156505 -0.10064721 83.25402749 C-0.07974393 55.50266453 -0.04456682 27.75133433 0 0 Z " fill="#58DA7D" transform="translate(12,145)"/>
<path d="M0 0 C0.99 0.33 1.98 0.66 3 1 C3.33 1.99 3.66 2.98 4 4 C4.5775 4.28875 5.155 4.5775 5.75 4.875 C8 6 8 6 10.4375 8.5 C13.03217421 11.03138947 14.60235267 11.92269719 18 13 C18.89330525 13.34135998 19.78661049 13.68271996 20.70698559 14.03442419 C24.37830482 15.11092632 27.42681682 15.25482309 31.25073051 15.26171303 C32.31719285 15.26770712 32.31719285 15.26770712 33.40519989 15.27382231 C35.7876906 15.28479161 38.16994888 15.28159602 40.55245972 15.2784729 C42.27768247 15.28347604 44.00290287 15.28935189 45.72811997 15.29602563 C50.46903215 15.31183741 55.20988508 15.31525697 59.95082045 15.31667423 C65.06325438 15.32036621 70.17565574 15.33552069 75.28807068 15.34928894 C84.14573704 15.37157192 93.00339183 15.38657897 101.86108017 15.39665604 C114.66783598 15.41123631 127.47455147 15.43677132 140.28128363 15.46498732 C161.05893102 15.51046716 181.83658421 15.54707705 202.61425781 15.578125 C222.79883849 15.60830566 242.98340497 15.64265371 263.16796875 15.68261719 C264.41196957 15.68507874 265.65597038 15.68754028 266.93766819 15.69007643 C273.17840223 15.70245093 279.41913611 15.71490748 285.65986991 15.72740483 C337.43989346 15.83099047 389.21993472 15.92018785 441 16 C441 16.33 441 16.66 441 17 C387.24849234 17.0915253 333.49699254 17.16202337 279.7454223 17.20426132 C273.40173323 17.20926424 267.05804431 17.21444152 260.71435547 17.21972656 C259.4514239 17.2207758 258.18849234 17.22182505 256.88729012 17.22290608 C236.42934783 17.24031847 215.97145043 17.27186077 195.51353478 17.30861118 C174.52690865 17.34599736 153.54030606 17.36823094 132.55364799 17.37635398 C119.60036344 17.38184656 106.64720576 17.39920387 93.69396025 17.43166587 C84.8153558 17.45278505 75.93681709 17.45920592 67.05818933 17.45400551 C61.93318682 17.45143971 56.80840627 17.45541467 51.68344307 17.4768219 C46.99146747 17.49627759 42.29986323 17.49727631 37.60787058 17.48359558 C35.91055838 17.48190457 34.21322307 17.48698707 32.5159564 17.49953273 C20.78434243 17.58120636 12.80764149 16.40729415 4 8 C0 2.63157895 0 2.63157895 0 0 Z " fill="#17C641" transform="translate(16,378)"/>
<path d="M0 0 C1.08274508 -0.00436032 1.08274508 -0.00436032 2.1873638 -0.00880873 C4.61286551 -0.01612376 7.03811544 -0.00915841 9.46361542 -0.002285 C11.2174087 -0.00458884 12.97120103 -0.00776484 14.72499132 -0.01173949 C19.54973654 -0.02010671 24.37440287 -0.01595347 29.19914842 -0.00976706 C34.40030092 -0.00525145 39.60143963 -0.01222189 44.80258942 -0.0177269 C54.99380159 -0.02663208 65.18498435 -0.02469388 75.3761977 -0.01890162 C83.6569314 -0.01438955 91.93765684 -0.01377025 100.21839142 -0.01594925 C101.98450261 -0.01640895 101.98450261 -0.01640895 103.78629282 -0.01687793 C106.1779815 -0.01751737 108.56967017 -0.01816579 110.96135885 -0.01882312 C133.40173908 -0.02452971 155.84210298 -0.01796336 178.28248054 -0.00722238 C197.5480672 0.00171342 216.81362977 0.00016147 236.079216 -0.00905991 C258.43789743 -0.01975673 280.79656454 -0.02398035 303.15524817 -0.01783538 C305.53826491 -0.01719826 307.92128165 -0.01656952 310.3042984 -0.01594925 C312.06315095 -0.01548642 312.06315095 -0.01548642 313.85753587 -0.01501425 C322.13077864 -0.01328554 330.40401235 -0.01620619 338.67725372 -0.02090836 C348.75603582 -0.02651066 358.83478676 -0.02501446 368.91356528 -0.01434687 C374.05841387 -0.00908139 379.20321046 -0.00704831 384.3480587 -0.01364517 C389.05439959 -0.01958862 393.76064008 -0.01635612 398.46697181 -0.00569007 C400.17282097 -0.00344921 401.87867853 -0.00460761 403.58452231 -0.00944164 C405.89736659 -0.01549489 408.20986385 -0.00931398 410.52268982 0 C411.80912998 0.0003247 413.09557014 0.00064941 414.42099333 0.00098395 C417.64105555 0.24265439 419.87031766 0.86197085 422.76134491 2.25168228 C419.34303887 3.39111763 418.21445759 2.9651373 414.76134491 2.25168228 C412.37303754 2.16128508 409.98241424 2.12614598 407.59239674 2.12584114 C406.87810976 2.1243877 406.16382278 2.12293426 405.42789075 2.12143677 C403.02814126 2.11777976 400.62845541 2.12126182 398.22870636 2.12469864 C396.49339998 2.12354671 394.75809385 2.1219587 393.02278823 2.11997139 C388.2492786 2.11578807 383.47578891 2.11786428 378.70227921 2.12095761 C373.55640344 2.12321547 368.41053115 2.1197302 363.26465607 2.11697769 C353.18274325 2.11252545 343.10083786 2.11349397 333.01892475 2.11639033 C324.82874683 2.11864612 316.63857101 2.11895612 308.44839287 2.11786652 C307.28399604 2.11771328 306.11959922 2.11756005 304.91991764 2.11740217 C302.55471677 2.11708246 300.1895159 2.11675825 297.82431503 2.11642958 C275.63439927 2.11357649 253.44448762 2.11685935 231.25457253 2.12222995 C212.19668795 2.1266996 193.13880946 2.1259204 174.08092499 2.12131119 C151.9672861 2.11596546 129.85365084 2.1138493 107.74001139 2.11692345 C105.38429081 2.11724201 103.02857024 2.11755638 100.67284966 2.11786652 C99.51367971 2.11802079 98.35450976 2.11817507 97.16021344 2.11833402 C88.97423019 2.11919905 80.78824922 2.11773663 72.60226631 2.11538696 C62.6346644 2.11258887 52.66707037 2.11332751 42.69946937 2.11866771 C37.60968771 2.12130431 32.51991921 2.12231044 27.43013763 2.11901855 C22.77764327 2.11605488 18.12517435 2.11764961 13.47268232 2.12299611 C11.78303642 2.12411996 10.0933884 2.1235298 8.40374384 2.12112032 C6.12005452 2.11811166 3.83645421 2.12116573 1.55276966 2.12584114 C-0.3558161 2.12608467 -0.3558161 2.12608467 -2.30295914 2.12633312 C-5.17296737 2.04856727 -5.17296737 2.04856727 -7.23865509 3.25168228 C-5.78821238 7.36126995 -3.72754757 10.68426973 -1.23865509 14.25168228 C-4.27718214 12.84191523 -6.83261459 11.16298 -9.48865509 9.12668228 C-10.19506134 8.58785416 -10.90146759 8.04902603 -11.62928009 7.49386978 C-12.16037384 7.08394791 -12.69146759 6.67402603 -13.23865509 6.25168228 C-13.05115509 4.37668228 -13.05115509 4.37668228 -12.23865509 2.25168228 C-8.16003547 0.08039494 -4.56538059 0.00115233 0 0 Z " fill="#16C741" transform="translate(44.23865509033203,104.74831771850586)"/>
<path d="M0 0 C4.47220196 0.69878156 8.96633729 1.91638615 13 4 C15 7 15 7 15 10 C15.5775 10.144375 16.155 10.28875 16.75 10.4375 C19.875 11.21875 19.875 11.21875 23 12 C23 11.34 23 10.68 23 10 C23.66 10.33 24.32 10.66 25 11 C25 12.32 25 13.64 25 15 C27.60444348 15.05394705 30.20776998 15.09364469 32.8125 15.125 C33.55048828 15.14175781 34.28847656 15.15851563 35.04882812 15.17578125 C38.91246426 15.21074628 40.70903668 15.19397555 44 13 C46.33199388 12.92094936 48.66832622 12.91201231 51 13 C51 12.34 51 11.68 51 11 C51.66 11 52.32 11 53 11 C53 10.01 53 9.02 53 8 C54.65 8 56.3 8 58 8 C58 7.01 58 6.02 58 5 C62.625 2.875 62.625 2.875 66 4 C54.9181168 12.85199207 45.86544888 19.94939001 31 19 C18.76971729 17.36305968 9.09552059 8.71113836 0 1 C0 0.67 0 0.34 0 0 Z " fill="#40DA66" transform="translate(215,248)"/>
<path d="M0 0 C0.99 0.33 1.98 0.66 3 1 C3.33 1.99 3.66 2.98 4 4 C4.5775 4.28875 5.155 4.5775 5.75 4.875 C8 6 8 6 10.4375 8.5 C13.03217421 11.03138947 14.60235267 11.92269719 18 13 C18.89248444 13.34018158 19.78496887 13.68036316 20.70449829 14.03085327 C24.37447108 15.11012509 27.46760921 15.27860641 31.29052734 15.31884766 C32.3452272 15.33391609 32.3452272 15.33391609 33.42123413 15.34928894 C35.72612757 15.37997493 38.03090564 15.39711497 40.3359375 15.4140625 C41.94162987 15.43278593 43.54731252 15.45236021 45.15298462 15.4727478 C49.3647487 15.52395101 53.57654464 15.56363969 57.78845215 15.60089111 C62.09212041 15.64100506 66.39565749 15.6920636 70.69921875 15.7421875 C79.1327227 15.83880683 87.56629188 15.92325608 96 16 C96 16.33 96 16.66 96 17 C85.96830868 17.09287433 75.93672044 17.16385329 65.90468597 17.20724869 C61.24587262 17.22808137 56.58735444 17.25631961 51.92871094 17.30175781 C47.42884946 17.3453703 42.92927107 17.36916957 38.42921448 17.37950897 C36.71647183 17.38687279 35.00374385 17.40125255 33.29112244 17.42292023 C21.24799988 17.56916178 13.05132986 16.63990578 4 8 C0 2.63157895 0 2.63157895 0 0 Z " fill="#18C743" transform="translate(16,378)"/>
<path d="M0 0 C0.73224792 -0.00029205 1.46449585 -0.00058411 2.21893311 -0.00088501 C4.62679101 0.00050258 7.03433517 0.01603661 9.44213867 0.03173828 C11.11650931 0.03547045 12.79088213 0.03831646 14.46525574 0.04031372 C18.86292598 0.04793415 23.26046321 0.06756894 27.65808105 0.08972168 C32.149233 0.1102144 36.64040653 0.11932276 41.1315918 0.12939453 C49.93699124 0.15081638 58.74228276 0.18493306 67.54760742 0.22705078 C67.54760742 0.55705078 67.54760742 0.88705078 67.54760742 1.22705078 C66.18244492 1.24251198 66.18244492 1.24251198 64.78970337 1.25828552 C56.22546489 1.3561402 47.6612974 1.45863733 39.09717751 1.56639004 C34.69396113 1.62162589 30.29073812 1.67504695 25.88745117 1.72436523 C21.64045698 1.77199902 17.39354486 1.82434147 13.14664841 1.87999153 C11.52390961 1.90041956 9.90114831 1.9191319 8.2783699 1.9361248 C6.01077361 1.96015894 3.743333 1.99021471 1.47583008 2.02172852 C0.18343414 2.0372728 -1.10896179 2.05281708 -2.44052124 2.0688324 C-5.37495508 2.02180002 -5.37495508 2.02180002 -7.45239258 3.22705078 C-6.00194987 7.33663845 -3.94128505 10.65963823 -1.45239258 14.22705078 C-4.49091962 12.81728373 -7.04635207 11.1383485 -9.70239258 9.10205078 C-10.40879883 8.56322266 -11.11520508 8.02439453 -11.84301758 7.46923828 C-12.37411133 7.05931641 -12.90520508 6.64939453 -13.45239258 6.22705078 C-13.26489258 4.35205078 -13.26489258 4.35205078 -12.45239258 2.22705078 C-8.3814063 0.04293594 -4.51231375 -0.04748229 0 0 Z " fill="#17C641" transform="translate(44.452392578125,104.77294921875)"/>
<path d="M0 0 C1.4540625 0.0309375 1.4540625 0.0309375 2.9375 0.0625 C-0.46510372 3.58951336 -3.97218034 6.6640675 -7.875 9.625 C-8.42542969 10.04338135 -8.97585938 10.4617627 -9.54296875 10.89282227 C-10.73764245 11.79928094 -11.93382607 12.70375233 -13.13134766 13.60644531 C-15.18865332 15.15761737 -17.24077679 16.71550783 -19.29296875 18.2734375 C-20.71580656 19.34940712 -22.13897839 20.42493522 -23.5625 21.5 C-24.2325708 22.00797119 -24.9026416 22.51594238 -25.59301758 23.03930664 C-28.98435888 25.5882591 -32.36476387 27.96474585 -36.0625 30.0625 C-35.7325 28.0825 -35.4025 26.1025 -35.0625 24.0625 C-29.2875 22.09375 -29.2875 22.09375 -26.8125 21.75 C-24.75760616 21.17039088 -24.75760616 21.17039088 -23.8125 18.5 C-23.44125 17.2934375 -23.44125 17.2934375 -23.0625 16.0625 C-22.0725 16.0625 -21.0825 16.0625 -20.0625 16.0625 C-19.7325 14.7425 -19.4025 13.4225 -19.0625 12.0625 C-17.0825 11.7325 -15.1025 11.4025 -13.0625 11.0625 C-13.0625 10.4025 -13.0625 9.7425 -13.0625 9.0625 C-12.423125 8.959375 -11.78375 8.85625 -11.125 8.75 C-10.444375 8.523125 -9.76375 8.29625 -9.0625 8.0625 C-8.7325 7.0725 -8.4025 6.0825 -8.0625 5.0625 C-7.0725 5.0625 -6.0825 5.0625 -5.0625 5.0625 C-4.918125 4.423125 -4.77375 3.78375 -4.625 3.125 C-3.73376283 -0.14286963 -3.55757083 0.07260349 0 0 Z " fill="#3FD764" transform="translate(383.0625,171.9375)"/>
<path d="M0 0 C4.71025427 0.45290906 7.335774 1.0686192 11 4 C11.845625 4.12375 12.69125 4.2475 13.5625 4.375 C16 5 16 5 17.75 7.375 C19 10 19 10 20 13 C22.00016466 14.20882096 22.00016466 14.20882096 24 15 C24 15.99 24 16.98 24 18 C15.34363825 14.02493412 7.22955257 7.15850774 0 1 C0 0.67 0 0.34 0 0 Z " fill="#12D344" transform="translate(147,197)"/>
<path d="M0 0 C7.875 2.25 7.875 2.25 10.9375 5.125 C11.52402344 5.66382813 12.11054688 6.20265625 12.71484375 6.7578125 C13.13894531 7.16773438 13.56304687 7.57765625 14 8 C13.34 8.66 12.68 9.32 12 10 C12 9.34 12 8.68 12 8 C11.21625 7.9175 10.4325 7.835 9.625 7.75 C7 7 7 7 5.6875 4.9375 C5.3471875 3.9784375 5.3471875 3.9784375 5 3 C3.68 3 2.36 3 1 3 C1 21.15 1 39.3 1 58 C0.67 58 0.34 58 0 58 C0 38.86 0 19.72 0 0 Z " fill="#1CBE49" transform="translate(13,147)"/>
<path d="M0 0 C0.66 0.33 1.32 0.66 2 1 C-1.20513898 5.21246838 -3.01557513 7.1140014 -8 9 C-8.33 9.680625 -8.66 10.36125 -9 11.0625 C-9.33 11.701875 -9.66 12.34125 -10 13 C-12.625 13.75 -12.625 13.75 -15 14 C-15 14.66 -15 15.32 -15 16 C-15.78375 16.0825 -16.5675 16.165 -17.375 16.25 C-20.14749104 16.72806339 -20.14749104 16.72806339 -21.3125 19.0625 C-21.539375 19.701875 -21.76625 20.34125 -22 21 C-22.99 21 -23.98 21 -25 21 C-25.33 22.32 -25.66 23.64 -26 25 C-27.65 25 -29.3 25 -31 25 C-26.76613005 20.51158877 -22.07699497 16.81340076 -17.1875 13.0625 C-16.41857422 12.46759766 -15.64964844 11.87269531 -14.85742188 11.25976562 C-9.93842787 7.46155507 -4.98185401 3.7152954 0 0 Z " fill="#5BDA7A" transform="translate(483,147)"/>
<path d="M0 0 C4.7516921 0.29698076 7.47483517 2.66468927 11.0625 5.51171875 C13.10005067 7.14983597 13.10005067 7.14983597 16 8.6875 C16.99 9.3371875 16.99 9.3371875 18 10 C18 10.99 18 11.98 18 13 C18.928125 13.103125 19.85625 13.20625 20.8125 13.3125 C24.07584598 14.01635894 25.12125566 14.33020541 27 17 C27.6875 19.1875 27.6875 19.1875 28 21 C25.07178807 19.62040113 22.50470389 18.03186051 19.8828125 16.13671875 C19.11066406 15.57919922 18.33851562 15.02167969 17.54296875 14.44726562 C16.74503906 13.86654297 15.94710937 13.28582031 15.125 12.6875 C14.33480469 12.11837891 13.54460937 11.54925781 12.73046875 10.96289062 C8.35047403 7.78903422 4.05703026 4.58088362 0 1 C0 0.67 0 0.34 0 0 Z " fill="#4FDA74" transform="translate(103,164)"/>
<path d="M0 0 C0.66 0.33 1.32 0.66 2 1 C-0.23800409 7.26641146 -4.40659417 9.88917466 -10 13 C-10.99 13.33 -11.98 13.66 -13 14 C-13.33 14.66 -13.66 15.32 -14 16 C-16.32156597 16.40729228 -18.6568787 16.74438677 -21 17 C-16.93226011 12.67551913 -12.46343737 9.20009737 -7.6875 5.6875 C-6.57665039 4.86282227 -6.57665039 4.86282227 -5.44335938 4.02148438 C-3.63160324 2.67727821 -1.817141 1.33691256 0 0 Z " fill="#45D86B" transform="translate(333,260)"/>
<path d="M0 0 C0.66 0.33 1.32 0.66 2 1 C0.71937515 2.7074998 -0.61767557 4.37373596 -2 6 C-2.66 6 -3.32 6 -4 6 C-4.33 6.99 -4.66 7.98 -5 9 C-6.7421875 10.38671875 -6.7421875 10.38671875 -8.875 11.6875 C-9.57367188 12.12449219 -10.27234375 12.56148437 -10.9921875 13.01171875 C-13 14 -13 14 -16 14 C-16.20625 14.598125 -16.4125 15.19625 -16.625 15.8125 C-18.53737004 18.85490688 -20.72121267 19.66171946 -24 21 C-24.99 21 -25.98 21 -27 21 C-20.22544688 15.46310562 -13.28898668 10.17377345 -6.27148438 4.95019531 C-5.60310547 4.45229492 -4.93472656 3.95439453 -4.24609375 3.44140625 C-3.64466553 2.99482666 -3.0432373 2.54824707 -2.42358398 2.08813477 C-1.02390541 1.0680315 -1.02390541 1.0680315 0 0 Z " fill="#33D457" transform="translate(426,190)"/>
<path d="M0 0 C0.33 0.66 0.66 1.32 1 2 C-2 5 -5 8 -8 11 C-9.0828125 12.11375 -9.0828125 12.11375 -10.1875 13.25 C-12.70109599 15.67692026 -13.56848236 15.99136965 -17.125 16.0625 C-18.07375 16.041875 -19.0225 16.02125 -20 16 C-16.07795039 11.83425022 -11.83123826 8.51588273 -7.1875 5.1875 C-6.49462891 4.68541016 -5.80175781 4.18332031 -5.08789062 3.66601562 C-3.39482309 2.4400012 -1.69781244 1.2194351 0 0 Z " fill="#09D83E" transform="translate(291,292)"/>
<path d="M0 0 C1.23556641 0.01740234 1.23556641 0.01740234 2.49609375 0.03515625 C3.32238281 0.04417969 4.14867187 0.05320313 5 0.0625 C5.63808594 0.07410156 6.27617187 0.08570313 6.93359375 0.09765625 C2.97892657 4.46142693 -1.55233475 7.73163644 -6.34765625 11.1328125 C-8.99097371 13.04314107 -11.53674461 15.04001481 -14.06640625 17.09765625 C-14.72640625 16.76765625 -15.38640625 16.43765625 -16.06640625 16.09765625 C-15.73640625 15.10765625 -15.40640625 14.11765625 -15.06640625 13.09765625 C-14.40640625 13.09765625 -13.74640625 13.09765625 -13.06640625 13.09765625 C-13.06640625 12.43765625 -13.06640625 11.77765625 -13.06640625 11.09765625 C-11.74640625 11.09765625 -10.42640625 11.09765625 -9.06640625 11.09765625 C-9.06640625 10.43765625 -9.06640625 9.77765625 -9.06640625 9.09765625 C-8.40640625 9.09765625 -7.74640625 9.09765625 -7.06640625 9.09765625 C-7.06640625 8.43765625 -7.06640625 7.77765625 -7.06640625 7.09765625 C-6.40640625 7.09765625 -5.74640625 7.09765625 -5.06640625 7.09765625 C-5.06640625 6.43765625 -5.06640625 5.77765625 -5.06640625 5.09765625 C-4.07640625 5.09765625 -3.08640625 5.09765625 -2.06640625 5.09765625 C-2.34484375 4.13859375 -2.34484375 4.13859375 -2.62890625 3.16015625 C-2.77328125 2.47953125 -2.91765625 1.79890625 -3.06640625 1.09765625 C-2.06640625 0.09765625 -2.06640625 0.09765625 0 0 Z " fill="#53D972" transform="translate(417.06640625,143.90234375)"/>
<path d="M0 0 C5.47180068 0.34198754 8.92073989 3.68560116 13 7 C13.8971875 7.7115625 13.8971875 7.7115625 14.8125 8.4375 C18.84879032 11.69758065 18.84879032 11.69758065 20 14 C21.64363134 14.72159424 23.31050386 15.39351421 25 16 C25 16.99 25 17.98 25 19 C20.58472926 17.54707727 17.68628928 15.27647565 14.1875 12.25 C10.01722526 8.67686212 5.79144424 5.26093459 1.328125 2.05859375 C0.88984375 1.70925781 0.4515625 1.35992187 0 1 C0 0.67 0 0.34 0 0 Z " fill="#49D870" transform="translate(43,119)"/>
<path d="M0 0 C1.4835001 0.42257276 2.96176424 0.86356322 4.4375 1.3125 C5.67306641 1.67794922 5.67306641 1.67794922 6.93359375 2.05078125 C7.61550781 2.36402344 8.29742187 2.67726562 9 3 C9.33 3.99 9.66 4.98 10 6 C10.928125 6.268125 11.85625 6.53625 12.8125 6.8125 C16.891948 8.33229435 17.65433632 10.4436712 20 14 C20.845625 14.165 21.69125 14.33 22.5625 14.5 C23.366875 14.665 24.17125 14.83 25 15 C26.8125 18.0625 26.8125 18.0625 28 21 C22.49417938 18.46375393 17.84611978 14.59491757 13 11 C11.88298875 10.18074922 10.76579901 9.36174176 9.6484375 8.54296875 C8.55697704 7.73740529 7.46582362 6.93142561 6.375 6.125 C5.37210938 5.38507813 4.36921875 4.64515625 3.3359375 3.8828125 C1 2 1 2 0 0 Z " fill="#73E491" transform="translate(187,227)"/>
<path d="M0 0 C0.66 0.33 1.32 0.66 2 1 C-2.55526488 7.11706998 -2.55526488 7.11706998 -8 8 C-8.44666016 8.89912109 -8.44666016 8.89912109 -8.90234375 9.81640625 C-10.19812524 12.39413525 -11.5888733 13.57418102 -13.875 15.3125 C-14.55304688 15.84488281 -15.23109375 16.37726563 -15.9296875 16.92578125 C-18.48232353 18.25026221 -19.33569068 17.80777741 -22 17 C-19.08377998 14.72859261 -16.1669457 12.45797537 -13.25 10.1875 C-12.425 9.54490234 -11.6 8.90230469 -10.75 8.24023438 C-9.95078125 7.61826172 -9.1515625 6.99628906 -8.328125 6.35546875 C-7.22839355 5.49924927 -7.22839355 5.49924927 -6.10644531 4.62573242 C-4.08443872 3.06516892 -2.04720131 1.52730928 0 0 Z " fill="#4AD66C" transform="translate(450,172)"/>
<path d="M0 0 C2.64 0.66 5.28 1.32 8 2 C8.33 3.32 8.66 4.64 9 6 C11.97 6.495 11.97 6.495 15 7 C15.33 7.99 15.66 8.98 16 10 C16.61875 10.28875 17.2375 10.5775 17.875 10.875 C20.67920898 12.35958123 21.54723288 14.23974247 23 17 C19.02616448 15.22614325 15.58528872 12.70802006 12.0625 10.1875 C11.45470703 9.76146484 10.84691406 9.33542969 10.22070312 8.89648438 C6.44564267 6.20466673 3.18720901 3.36864406 0 0 Z " fill="#51DC75" transform="translate(68,138)"/>
<path d="M0 0 C5.23184763 2.82802574 9.81302625 6.02105926 14.4375 9.75 C15.07365234 10.25660156 15.70980469 10.76320312 16.36523438 11.28515625 C17.91356913 12.51916741 19.45727982 13.75897683 21 15 C19.68 15.33 18.36 15.66 17 16 C17 15.34 17 14.68 17 14 C15.989375 13.79375 14.97875 13.5875 13.9375 13.375 C9.43195883 12.09950057 6.11173035 9.4545481 3 6 C2.67 5.01 2.34 4.02 2 3 C1.34 2.67 0.68 2.34 0 2 C0 1.34 0 0.68 0 0 Z " fill="#33D55D" transform="translate(131,234)"/>
<path d="M0 0 C0.99 0.33 1.98 0.66 3 1 C3.33 1.99 3.66 2.98 4 4 C4.5775 4.28875 5.155 4.5775 5.75 4.875 C8 6 8 6 10.4375 8.5 C13.01768661 11.01725523 14.71494427 11.73651703 18 13 C20.3125 15.125 20.3125 15.125 22 17 C14.87124803 16.304512 9.19684209 12.77547652 4 8 C0 2.59459459 0 2.59459459 0 0 Z " fill="#5EDC81" transform="translate(16,378)"/>
<path d="M0 0 C2.77438124 1.31220734 5.20790172 2.77482369 7.671875 4.6015625 C8.33574219 5.09140625 8.99960937 5.58125 9.68359375 6.0859375 C10.36550781 6.59382812 11.04742187 7.10171875 11.75 7.625 C12.44738281 8.140625 13.14476562 8.65625 13.86328125 9.1875 C15.57755267 10.45559119 17.28905156 11.7274289 19 13 C17 14 17 14 13.6875 13.375 C9.61672089 11.85708236 7.87733626 10.18839964 5 7 C4.2575 6.484375 3.515 5.96875 2.75 5.4375 C0.66965523 3.72864537 0.36162566 2.62178605 0 0 Z " fill="#52DC76" transform="translate(27,156)"/>
<path d="M0 0 C0.66 0.33 1.32 0.66 2 1 C0 4 0 4 -3 5 C-3 5.99 -3 6.98 -3 8 C-3.33 8.99 -3.66 9.98 -4 11 C-5.32 10.67 -6.64 10.34 -8 10 C-8 10.66 -8 11.32 -8 12 C-9.98 12 -11.96 12 -14 12 C-9.73412126 7.45890328 -4.96387672 3.75264754 0 0 Z " fill="#1DD84E" transform="translate(397,212)"/>
<path d="M0 0 C-2.10325242 1.62619517 -4.20755729 3.25099532 -6.3125 4.875 C-7.20485352 5.56529297 -7.20485352 5.56529297 -8.11523438 6.26953125 C-10.70028005 8.26247149 -13.28299068 10.18866045 -16 12 C-16.99 11.67 -17.98 11.34 -19 11 C-18.34 11 -17.68 11 -17 11 C-17 10.34 -17 9.68 -17 9 C-16.34 9 -15.68 9 -15 9 C-15 8.34 -15 7.68 -15 7 C-14.34 7 -13.68 7 -13 7 C-13 6.01 -13 5.02 -13 4 C-11.35 4 -9.7 4 -8 4 C-8 3.01 -8 2.02 -8 1 C-3.375 -1.125 -3.375 -1.125 0 0 Z " fill="#56DB77" transform="translate(281,252)"/>
<path d="M0 0 C-5.61 4.29 -11.22 8.58 -17 13 C-17.66 12.01 -18.32 11.02 -19 10 C-18.01 10 -17.02 10 -16 10 C-16 9.34 -16 8.68 -16 8 C-15.34 8 -14.68 8 -14 8 C-14 7.34 -14 6.68 -14 6 C-13.01 6 -12.02 6 -11 6 C-11 5.34 -11 4.68 -11 4 C-10.34 4 -9.68 4 -9 4 C-9 3.34 -9 2.68 -9 2 C-8.01 2 -7.02 2 -6 2 C-6 1.34 -6 0.68 -6 0 C-4 -1 -4 -1 0 0 Z " fill="#52DB75" transform="translate(461,117)"/>
<path d="M0 0 C1.32 0.33 2.64 0.66 4 1 C-0.26587874 5.54109672 -5.03612328 9.24735246 -10 13 C-10.66 12.67 -11.32 12.34 -12 12 C-11.34 10.68 -10.68 9.36 -10 8 C-9.01 8 -8.02 8 -7 8 C-7 7.34 -7 6.68 -7 6 C-6.34 5.34 -5.68 4.68 -5 4 C-3.68 4 -2.36 4 -1 4 C-0.67 2.68 -0.34 1.36 0 0 Z " fill="#59DF7E" transform="translate(301,232)"/>
<path d="M0 0 C4.70758732 0.80940731 8.70202537 1.57019983 12 5.203125 C13.45249058 7.42375963 14.78409764 9.64233567 16 12 C12.21751528 10.31991577 9.0307578 7.92161446 5.75 5.4375 C5.19570312 5.02564453 4.64140625 4.61378906 4.0703125 4.18945312 C2.69298825 3.15306751 1.3437077 2.07961421 0 1 C0 0.67 0 0.34 0 0 Z " fill="#4ADC71" transform="translate(131,185)"/>
<path d="M0 0 C5.06275093 0.4746329 9.12190193 2.82701067 13 6 C15 9.3125 15 9.3125 16 12 C12.46433646 10.38753587 9.45224677 8.28040353 6.3125 6 C5.33925781 5.29875 4.36601562 4.5975 3.36328125 3.875 C1 2 1 2 0 0 Z " fill="#54DD7A" transform="translate(171,215)"/>
<path d="M0 0 C0.33 0 0.66 0 1 0 C1.08765069 4.02069425 1.14061018 8.0411401 1.1875 12.0625 C1.22520508 13.7630957 1.22520508 13.7630957 1.26367188 15.49804688 C1.3188059 21.80170344 1.07297201 26.44284064 -2 32 C-2.33 32 -2.66 32 -3 32 C-3.1672256 29.15716472 -3.06813288 27.17582677 -2.03125 24.5 C-0.62120182 19.71438193 -0.53646578 15.09007285 -0.375 10.125 C-0.33632813 9.15046875 -0.29765625 8.1759375 -0.2578125 7.171875 C-0.16406967 4.7814328 -0.0783617 2.39098756 0 0 Z " fill="#2AC050" transform="translate(486,348)"/>
<path d="M0 0 C0.66 0.33 1.32 0.66 2 1 C-1.62166591 6.07033228 -5.85346684 10.12968232 -11.9375 11.8125 C-12.618125 11.874375 -13.29875 11.93625 -14 12 C-9.73412126 7.45890328 -4.96387672 3.75264754 0 0 Z " fill="#41D465" transform="translate(349,248)"/>
<path d="M0 0 C-2.79143029 3.10158921 -4.94383057 4.91835482 -9 6 C-12.00846986 6.15194292 -14.99086522 6.11800529 -18 6 C-18 5.67 -18 5.34 -18 5 C-15.69 5 -13.38 5 -11 5 C-11 4.34 -11 3.68 -11 3 C-7.63966885 -0.4947444 -4.66111848 -0.26891068 0 0 Z " fill="#43D36D" transform="translate(475,389)"/>
<path d="M0 0 C0.66 0.33 1.32 0.66 2 1 C-0.06788942 6.0548408 -2.21983729 8.35565467 -7 11 C-7.66 11 -8.32 11 -9 11 C-7.44095325 7.17324889 -4.96833913 4.81992217 -2 2 C-1.34 1.34 -0.68 0.68 0 0 Z " fill="#05D83F" transform="translate(333,260)"/>
<path d="M0 0 C0.99 0.33 1.98 0.66 3 1 C-0.16952847 4.26008643 -3.39937989 7.22237877 -7 10 C-7.66 9.67 -8.32 9.34 -9 9 C-8.67 7.68 -8.34 6.36 -8 5 C-7.01 5 -6.02 5 -5 5 C-5 4.01 -5 3.02 -5 2 C-3.35 2 -1.7 2 0 2 C0 1.34 0 0.68 0 0 Z " fill="#48DC6D" transform="translate(314,223)"/>
<path d="M0 0 C-0.33 0.66 -0.66 1.32 -1 2 C-4.65094061 3.2169802 -8.013252 3.14566681 -11.8125 3.125 C-12.86147461 3.13080078 -12.86147461 3.13080078 -13.93164062 3.13671875 C-18.05965562 3.12899562 -21.95127695 2.80084632 -26 2 C-26 1.34 -26 0.68 -26 0 C-25.05125 0.165 -24.1025 0.33 -23.125 0.5 C-16.93818847 1.36414979 -4.51691063 -2.25845531 0 0 Z " fill="#65E089" transform="translate(264,313)"/>
<path d="M0 0 C3.80133442 1.67923025 6.97082702 4.11462834 10.25 6.625 C10.80429688 7.04523438 11.35859375 7.46546875 11.9296875 7.8984375 C13.28866663 8.92938719 14.64463835 9.96429911 16 11 C15.01 11.495 15.01 11.495 14 12 C11.375 11.0625 11.375 11.0625 9 10 C9 9.34 9 8.68 9 8 C8.2575 7.7525 7.515 7.505 6.75 7.25 C3.76976913 5.89534961 2.10080748 4.4898459 0 2 C0 1.34 0 0.68 0 0 Z " fill="#4AD670" transform="translate(96,208)"/>
<path d="M0 0 C0.99 0.33 1.98 0.66 3 1 C-3.435 5.95 -3.435 5.95 -10 11 C-11 7 -11 7 -10 5 C-6.72076495 3.76117787 -3.41441762 2.78794253 0 2 C0 1.34 0 0.68 0 0 Z " fill="#51DC77" transform="translate(358,191)"/>
<path d="M0 0 C5.83096952 3.10157953 10.86601899 6.85556181 16 11 C14 12 14 12 10.875 11.0625 C9.451875 10.5365625 9.451875 10.5365625 8 10 C8 9.01 8 8.02 8 7 C7.38125 6.9175 6.7625 6.835 6.125 6.75 C4 6 4 6 2.75 3.9375 C2.37875 2.9784375 2.37875 2.9784375 2 2 C1.34 2 0.68 2 0 2 C0 1.34 0 0.68 0 0 Z " fill="#45D668" transform="translate(216,298)"/>
<path d="M0 0 C1.32 0.33 2.64 0.66 4 1 C0.40945767 4.88975419 -3.73898882 7.89732195 -8 11 C-8.66 10.67 -9.32 10.34 -10 10 C-9.67 8.68 -9.34 7.36 -9 6 C-7.02 5.67 -5.04 5.34 -3 5 C-3 4.34 -3 3.68 -3 3 C-2.01 3 -1.02 3 0 3 C0 2.01 0 1.02 0 0 Z " fill="#55DD77" transform="translate(335,207)"/>
<path d="M0 0 C4.63708939 2.60836278 8.78744458 5.77002574 13 9 C9.56586485 10.14471172 9.06553638 9.92843323 5.9375 8.4375 C2.69003359 6.73928362 2.10987443 6.23806126 0.5 2.75 C0.335 1.8425 0.17 0.935 0 0 Z " fill="#44D769" transform="translate(191,279)"/>
<path d="M0 0 C0.66 0.33 1.32 0.66 2 1 C1.01 2.485 1.01 2.485 0 4 C-0.99 4 -1.98 4 -3 4 C-3.20625 4.598125 -3.4125 5.19625 -3.625 5.8125 C-5.53737004 8.85490688 -7.72121267 9.66171946 -11 11 C-11.99 11 -12.98 11 -14 11 C-12.41728767 9.72839334 -10.83380365 8.45774715 -9.25 7.1875 C-8.36828125 6.47980469 -7.4865625 5.77210938 -6.578125 5.04296875 C-4.41007071 3.32494998 -2.22271099 1.64626024 0 0 Z " fill="#57D877" transform="translate(413,200)"/>
<path d="M0 0 C0.66 0.33 1.32 0.66 2 1 C-3.79310345 8.24137931 -3.79310345 8.24137931 -7 10 C-8.32 9.67 -9.64 9.34 -11 9 C-7.37 6.03 -3.74 3.06 0 0 Z " fill="#4AD76B" transform="translate(362,238)"/>
<path d="M0 0 C1.32 0.66 2.64 1.32 4 2 C2.71372289 3.17260611 1.42080217 4.3379283 0.125 5.5 C-0.59429687 6.1496875 -1.31359375 6.799375 -2.0546875 7.46875 C-4 9 -4 9 -6 9 C-6.33 7.68 -6.66 6.36 -7 5 C-5.68 5.33 -4.36 5.66 -3 6 C-3 5.01 -3 4.02 -3 3 C-2.34 3 -1.68 3 -1 3 C-0.67 2.01 -0.34 1.02 0 0 Z " fill="#53D977" transform="translate(467,107)"/>
<path d="M0 0 C0.66 0.33 1.32 0.66 2 1 C-1.84147426 6.26267902 -4.51152543 8.83207458 -11 10 C-7.50640535 6.40365256 -3.88901869 3.16548033 0 0 Z " fill="#4AD773" transform="translate(310,277)"/>
<path d="M0 0 C0.33 0.66 0.66 1.32 1 2 C-0.21807138 3.15762119 -1.45001235 4.3006583 -2.6875 5.4375 C-3.71423828 6.39462891 -3.71423828 6.39462891 -4.76171875 7.37109375 C-7.22289422 9.16221098 -9.00816574 9.62798558 -12 10 C-8.29909479 6.0747975 -4.45040344 3.05419844 0 0 Z " fill="#43D56B" transform="translate(291,292)"/>
<path d="M0 0 C3.03852705 1.40976705 5.5939595 3.08870228 8.25 5.125 C8.95640625 5.66382813 9.6628125 6.20265625 10.390625 6.7578125 C10.92171875 7.16773438 11.4528125 7.57765625 12 8 C10.16015625 8.6171875 10.16015625 8.6171875 8 9 C5.4375 7.125 5.4375 7.125 3 5 C2.01 4.67 1.02 4.34 0 4 C0 2.68 0 1.36 0 0 Z " fill="#41D56C" transform="translate(204,289)"/>
<path d="M0 0 C3.1875 0 3.1875 0 7 1 C9.09704436 3.45520293 10.57276992 6.11265436 12 9 C8.98472262 7.59422879 6.4052059 5.93873852 3.75 3.9375 C3.04359375 3.41027344 2.3371875 2.88304687 1.609375 2.33984375 C1.07828125 1.89769531 0.5471875 1.45554688 0 1 C0 0.67 0 0.34 0 0 Z " fill="#60E080" transform="translate(91,155)"/>
<path d="M0 0 C1.23556641 0.01740234 1.23556641 0.01740234 2.49609375 0.03515625 C3.32238281 0.04417969 4.14867187 0.05320313 5 0.0625 C5.63808594 0.07410156 6.27617187 0.08570313 6.93359375 0.09765625 C1.79073661 5.66908482 1.79073661 5.66908482 -2.06640625 6.09765625 C-2.44859392 4.44150968 -2.78035727 2.77308601 -3.06640625 1.09765625 C-2.06640625 0.09765625 -2.06640625 0.09765625 0 0 Z " fill="#3FDC68" transform="translate(417.06640625,143.90234375)"/>
<path d="M0 0 C3.95832823 0.56547546 6.79560679 1.57505379 10 4 C11.3125 6.6875 11.3125 6.6875 12 9 C8.98472262 7.59422879 6.4052059 5.93873852 3.75 3.9375 C3.04359375 3.41027344 2.3371875 2.88304687 1.609375 2.33984375 C1.07828125 1.89769531 0.5471875 1.45554688 0 1 C0 0.67 0 0.34 0 0 Z " fill="#5CDF7E" transform="translate(215,248)"/>
<path d="M0 0 C1.32 0.33 2.64 0.66 4 1 C2.44499019 4.81684226 -0.03595495 7.19195732 -3 10 C-3.33 9.01 -3.66 8.02 -4 7 C-3.67 6.34 -3.34 5.68 -3 5 C-2.01 5 -1.02 5 0 5 C0 3.35 0 1.7 0 0 Z " fill="#4BD96F" transform="translate(479,379)"/>
<path d="M0 0 C2.375 0.3125 2.375 0.3125 5 1 C5.66 1.99 6.32 2.98 7 4 C9.55183404 5.20450304 9.55183404 5.20450304 12 6 C12 6.99 12 7.98 12 9 C7.09198451 7.51272258 3.59508707 4.55364515 0 1 C0 0.67 0 0.34 0 0 Z " fill="#75E595" transform="translate(56,129)"/>
<path d="M0 0 C0.66 0.33 1.32 0.66 2 1 C-1.64751781 6.08441876 -3.85169289 7.79444959 -10 9 C-6.83047153 5.73991357 -3.60062011 2.77762123 0 0 Z " fill="#54DA76" transform="translate(450,172)"/>
<path d="M0 0 C0.66 0.33 1.32 0.66 2 1 C-1.64751781 6.08441876 -3.85169289 7.79444959 -10 9 C-6.83047153 5.73991357 -3.60062011 2.77762123 0 0 Z " fill="#61DE84" transform="translate(483,147)"/>
<path d="M0 0 C-4.455 3.465 -4.455 3.465 -9 7 C-9.66 6.67 -10.32 6.34 -11 6 C-10.67 4.68 -10.34 3.36 -10 2 C-9.34 2 -8.68 2 -8 2 C-7.67 1.34 -7.34 0.68 -7 0 C-2.52459016 -1.26229508 -2.52459016 -1.26229508 0 0 Z " fill="#6AE18A" transform="translate(435,137)"/>
<path d="M0 0 C6.14830711 1.20555041 8.35248219 2.91558124 12 8 C8.21516391 8 7.22592069 6.89417485 4.3125 4.5625 C3.50425781 3.92441406 2.69601563 3.28632812 1.86328125 2.62890625 C1.24839844 2.09136719 0.63351563 1.55382812 0 1 C0 0.67 0 0.34 0 0 Z " fill="#63DF81" transform="translate(31,110)"/>
<path d="M0 0 C0.66 0.33 1.32 0.66 2 1 C-0.33333333 3.33333333 -2.66666667 5.66666667 -5 8 C-6.32 7.67 -7.64 7.34 -9 7 C-6.03 4.69 -3.06 2.38 0 0 Z " fill="#4ED971" transform="translate(381,224)"/>
<path d="M0 0 C0.66 0.33 1.32 0.66 2 1 C0 4 0 4 -3 5 C-4.68538601 6.99665314 -4.68538601 6.99665314 -6 9 C-7.32 8.67 -8.64 8.34 -10 8 C-6.7 5.36 -3.4 2.72 0 0 Z " fill="#49D774" transform="translate(397,212)"/>
<path d="M0 0 C-0.639375 0.2475 -1.27875 0.495 -1.9375 0.75 C-4.18741541 1.81562433 -4.18741541 1.81562433 -4.75 4.125 C-4.8325 4.74375 -4.915 5.3625 -5 6 C-7.475 5.01 -7.475 5.01 -10 4 C-9 1 -9 1 -6.6875 -0.25 C-3.90126985 -1.0275526 -2.66561622 -0.98726527 0 0 Z " fill="#23CC4F" transform="translate(41,106)"/>
<path d="M0 0 C4.81033104 2.54664585 8.32442148 4.99027798 12 9 C10.68 9 9.36 9 8 9 C8 8.34 8 7.68 8 7 C7.38125 6.9175 6.7625 6.835 6.125 6.75 C4 6 4 6 2.75 3.9375 C2.37875 2.9784375 2.37875 2.9784375 2 2 C1.34 2 0.68 2 0 2 C0 1.34 0 0.68 0 0 Z " fill="#45D869" transform="translate(152,250)"/>
<path d="M0 0 C4.28477792 2.30718811 7.72291137 4.32966073 11 8 C5.50847458 7.38983051 5.50847458 7.38983051 3.125 5.5625 C2 4 2 4 2 2 C1.34 2 0.68 2 0 2 C0 1.34 0 0.68 0 0 Z " fill="#4BD770" transform="translate(120,226)"/>
<path d="M0 0 C0.99 0 1.98 0 3 0 C2.62005832 2.75457718 2.1926367 3.82020574 0.125 5.75 C-2 7 -2 7 -5 7 C-4.67 6.01 -4.34 5.02 -4 4 C-3.01 4 -2.02 4 -1 4 C-0.67 2.68 -0.34 1.36 0 0 Z " fill="#33D45C" transform="translate(364,184)"/>
<path d="M0 0 C0.66 0 1.32 0 2 0 C1.63594751 2.70438996 1.31857318 3.74406383 -0.84765625 5.484375 C-1.57855469 5.90203125 -2.30945313 6.3196875 -3.0625 6.75 C-3.79597656 7.17796875 -4.52945312 7.6059375 -5.28515625 8.046875 C-5.85105469 8.36140625 -6.41695313 8.6759375 -7 9 C-7 7.68 -7 6.36 -7 5 C-6.01 5 -5.02 5 -4 5 C-4 4.34 -4 3.68 -4 3 C-2.68 2.67 -1.36 2.34 0 2 C0 1.34 0 0.68 0 0 Z " fill="#4ED970" transform="translate(374,178)"/>
<path d="M0 0 C3.98381075 2.16264012 6.88983545 4.71211176 10 8 C9.01 8.495 9.01 8.495 8 9 C8 8.34 8 7.68 8 7 C7.236875 6.9175 6.47375 6.835 5.6875 6.75 C2.45284809 5.84730645 1.64900735 4.86406539 0 2 C0 1.34 0 0.68 0 0 Z " fill="#63DC84" transform="translate(17,148)"/>
<path d="M0 0 C7.23044397 1.0845666 7.23044397 1.0845666 9.421875 3.69140625 C10.5 5.625 10.5 5.625 12 9 C8.98472262 7.59422879 6.4052059 5.93873852 3.75 3.9375 C3.04359375 3.41027344 2.3371875 2.88304687 1.609375 2.33984375 C1.07828125 1.89769531 0.5471875 1.45554688 0 1 C0 0.67 0 0.34 0 0 Z " fill="#78E694" transform="translate(68,138)"/>
<path d="M0 0 C2.31 0.33 4.62 0.66 7 1 C7.33 1.99 7.66 2.98 8 4 C8.99 4.33 9.98 4.66 11 5 C11 5.66 11 6.32 11 7 C11.99 7.33 12.98 7.66 14 8 C10.28400809 8.20086443 9.22791555 8.1519437 6 6 C6 5.01 6 4.02 6 3 C4.02 2.34 2.04 1.68 0 1 C0 0.67 0 0.34 0 0 Z " fill="#18D147" transform="translate(62,132)"/>
<path d="M0 0 C0.4125 0.474375 0.825 0.94875 1.25 1.4375 C3.182185 3.16266518 4.48192275 3.56584875 7 4 C7 4.66 7 5.32 7 6 C7.66 6 8.32 6 9 6 C8.67 6.66 8.34 7.32 8 8 C5 8 5 8 3.5 6.5625 C3.005 6.046875 2.51 5.53125 2 5 C1.01 4.67 0.02 4.34 -1 4 C-0.67 2.68 -0.34 1.36 0 0 Z " fill="#0BD939" transform="translate(209,294)"/>
<path d="M0 0 C8.35010941 1.99562363 8.35010941 1.99562363 11.0625 6.1875 C11.371875 7.115625 11.68125 8.04375 12 9 C8.98472262 7.59422879 6.4052059 5.93873852 3.75 3.9375 C3.04359375 3.41027344 2.3371875 2.88304687 1.609375 2.33984375 C1.07828125 1.89769531 0.5471875 1.45554688 0 1 C0 0.67 0 0.34 0 0 Z " fill="#73E594" transform="translate(203,239)"/>
<path d="M0 0 C4.81033104 2.54664585 8.32442148 4.99027798 12 9 C10.5164999 8.57742724 9.03823576 8.13643678 7.5625 7.6875 C6.73878906 7.44386719 5.91507813 7.20023438 5.06640625 6.94921875 C4.38449219 6.63597656 3.70257813 6.32273438 3 6 C2.67 5.01 2.34 4.02 2 3 C1.34 2.67 0.68 2.34 0 2 C0 1.34 0 0.68 0 0 Z " fill="#59DB7B" transform="translate(131,234)"/>
<path d="M0 0 C1.98 0.66 3.96 1.32 6 2 C6 2.99 6 3.98 6 5 C7.98 5 9.96 5 12 5 C12 5.33 12 5.66 12 6 C6.73629243 6.4386423 6.73629243 6.4386423 4 6 C1.5 3.5625 1.5 3.5625 0 1 C0 0.67 0 0.34 0 0 Z " fill="#36D55D" transform="translate(232,310)"/>
<path d="M0 0 C0.99 0.33 1.98 0.66 3 1 C0.6875 3.5 0.6875 3.5 -2 6 C-2.99 6 -3.98 6 -5 6 C-5 4.68 -5 3.36 -5 2 C-3.35 2 -1.7 2 0 2 C0 1.34 0 0.68 0 0 Z " fill="#4BDD74" transform="translate(322,217)"/>
<path d="M0 0 C2.375 0.3125 2.375 0.3125 5 1 C5.66 1.99 6.32 2.98 7 4 C6.67 4.99 6.34 5.98 6 7 C4 5.6875 4 5.6875 2 4 C2 3.01 2 2.02 2 1 C1.34 0.67 0.68 0.34 0 0 Z " fill="#14D240" transform="translate(223,251)"/>
<path d="M0 0 C4.04420651 1.77945087 7.46078487 4.39529673 11 7 C10.01 7.495 10.01 7.495 9 8 C5.89504293 6.96501431 5.21350711 6.21350711 3 4 C0.90010348 2.82425289 0.90010348 2.82425289 -1 2 C-0.67 1.34 -0.34 0.68 0 0 Z " fill="#56DA7E" transform="translate(76,193)"/>
<path d="M0 0 C-4.625 4.875 -4.625 4.875 -8 6 C-8 4.68 -8 3.36 -8 2 C-4.77208445 -0.1519437 -3.71599191 -0.20086443 0 0 Z " fill="#54DE74" transform="translate(401,161)"/>
<path d="M0 0 C1.32 0.33 2.64 0.66 4 1 C1.75 3.5625 1.75 3.5625 -1 6 C-3.3125 5.8125 -3.3125 5.8125 -5 5 C-3.68 4.67 -2.36 4.34 -1 4 C-0.67 2.68 -0.34 1.36 0 0 Z " fill="#4AD971" transform="translate(301,232)"/>
<path d="M0 0 C2.875 0.25 2.875 0.25 6 1 C7.375 3.0625 7.375 3.0625 8 5 C5 5 5 5 2.3125 2.5 C1.549375 1.675 0.78625 0.85 0 0 Z " fill="#59DE7C" transform="translate(163,209)"/>
<path d="M0 0 C6.875 3.75 6.875 3.75 8 6 C5.69 5.67 3.38 5.34 1 5 C0.67 3.35 0.34 1.7 0 0 Z " fill="#48D96B" transform="translate(59,180)"/>
<path d="M0 0 C1.32 0.33 2.64 0.66 4 1 C4 1.66 4 2.32 4 3 C3.01 3 2.02 3 1 3 C1 6.96 1 10.92 1 15 C0.67 15 0.34 15 0 15 C0 10.05 0 5.1 0 0 Z " fill="#24C250" transform="translate(13,147)"/>
<path d="M0 0 C3.36591866 1.44253657 5.51047079 3.33264727 8 6 C5.69 5.67 3.38 5.34 1 5 C0.67 3.35 0.34 1.7 0 0 Z " fill="#42D868" transform="translate(112,220)"/>
<path d="M0 0 C-5.75 5 -5.75 5 -8 5 C-8 3.68 -8 2.36 -8 1 C-2.25 -1.125 -2.25 -1.125 0 0 Z " fill="#7BE796" transform="translate(443,131)"/>
<path d="M0 0 C2.3125 0.1875 2.3125 0.1875 5 1 C6.8125 3.5625 6.8125 3.5625 8 6 C4.08597051 4.73058503 2.20927127 3.48832306 0 0 Z " fill="#6BE189" transform="translate(171,215)"/>
<path d="M0 0 C2.25 0.125 2.25 0.125 5 1 C7.3125 4.0625 7.3125 4.0625 9 7 C5.18315774 5.44499019 2.80804268 2.96404505 0 0 Z " fill="#70E290" transform="translate(103,164)"/>
<path d="M0 0 C1.32 0 2.64 0 4 0 C2.86695008 3.39914975 1.87481525 4.05254451 -1 6 C-1.66 5.67 -2.32 5.34 -3 5 C-2.67 4.01 -2.34 3.02 -2 2 C-1.34 2 -0.68 2 0 2 C0 1.34 0 0.68 0 0 Z " fill="#5CDC79" transform="translate(404,155)"/>
<path d="M0 0 C2.31 0 4.62 0 7 0 C5.68 1.32 4.36 2.64 3 4 C2.01 3.67 1.02 3.34 0 3 C0 2.01 0 1.02 0 0 Z " fill="#4FDE72" transform="translate(468,389)"/>
<path d="M0 0 C0.66 0.33 1.32 0.66 2 1 C1.5205537 5.21912747 0.83374881 7.79663178 -2 11 C-2.24042276 6.91281305 -1.42258812 3.82320557 0 0 Z " fill="#63DD83" transform="translate(485,369)"/>
<path d="M0 0 C4.455 2.97 4.455 2.97 9 6 C7.68 6.33 6.36 6.66 5 7 C4.67 6.01 4.34 5.02 4 4 C3.01 4 2.02 4 1 4 C0.67 2.68 0.34 1.36 0 0 Z " fill="#5ADA7A" transform="translate(182,272)"/>
<path d="M0 0 C2.3125 0.1875 2.3125 0.1875 5 1 C6.8125 3.5625 6.8125 3.5625 8 6 C4.08597051 4.73058503 2.20927127 3.48832306 0 0 Z " fill="#6FE28F" transform="translate(155,203)"/>
<path d="M0 0 C0.66 0.33 1.32 0.66 2 1 C0.68 2.65 -0.64 4.3 -2 6 C-3.32 5.67 -4.64 5.34 -6 5 C-4.02 3.35 -2.04 1.7 0 0 Z " fill="#4DD46F" transform="translate(277,302)"/>
<path d="M0 0 C0.66 0.33 1.32 0.66 2 1 C0.68 2.65 -0.64 4.3 -2 6 C-3.32 5.67 -4.64 5.34 -6 5 C-4.02 3.35 -2.04 1.7 0 0 Z " fill="#49D66D" transform="translate(333,260)"/>
<path d="M0 0 C0.66 0.33 1.32 0.66 2 1 C0.68 2.65 -0.64 4.3 -2 6 C-3.32 5.67 -4.64 5.34 -6 5 C-4.02 3.35 -2.04 1.7 0 0 Z " fill="#49D86F" transform="translate(349,248)"/>
<path d="M0 0 C0.66 0.33 1.32 0.66 2 1 C0.68 2.65 -0.64 4.3 -2 6 C-3.32 5.67 -4.64 5.34 -6 5 C-4.02 3.35 -2.04 1.7 0 0 Z " fill="#59DB77" transform="translate(370,232)"/>
<path d="M0 0 C2.375 0.25 2.375 0.25 5 1 C6.3125 3.0625 6.3125 3.0625 7 5 C4.625 4.75 4.625 4.75 2 4 C0.6875 1.9375 0.6875 1.9375 0 0 Z " fill="#40D769" transform="translate(198,234)"/>
<path d="M0 0 C5.66153846 1.47692308 5.66153846 1.47692308 7.375 4.125 C7.684375 5.053125 7.684375 5.053125 8 6 C4.08597051 4.73058503 2.20927127 3.48832306 0 0 Z " fill="#73E594" transform="translate(147,197)"/>
<path d="M0 0 C0.66 0.33 1.32 0.66 2 1 C0.68 2.65 -0.64 4.3 -2 6 C-3.32 5.67 -4.64 5.34 -6 5 C-4.02 3.35 -2.04 1.7 0 0 Z " fill="#57DC79" transform="translate(426,190)"/>
<path d="M0 0 C1.11375 0.598125 2.2275 1.19625 3.375 1.8125 C4.00148438 2.14894531 4.62796875 2.48539063 5.2734375 2.83203125 C7 4 7 4 9 7 C2.29787234 5.06382979 2.29787234 5.06382979 0 2 C0 1.34 0 0.68 0 0 Z " fill="#5DDC7A" transform="translate(67,186)"/>
<path d="M0 0 C2.31 0.66 4.62 1.32 7 2 C7.33 3.32 7.66 4.64 8 6 C4.63408134 4.55746343 2.48952921 2.66735273 0 0 Z " fill="#65E183" transform="translate(131,185)"/>
<path d="M0 0 C1.98 0 3.96 0 6 0 C4.35 1.65 2.7 3.3 1 5 C0.34 4.67 -0.32 4.34 -1 4 C-0.67 2.68 -0.34 1.36 0 0 Z " fill="#56DF7B" transform="translate(387,167)"/>
<path d="M0 0 C2.3125 0.1875 2.3125 0.1875 5 1 C6.8125 3.5625 6.8125 3.5625 8 6 C4.63408134 4.55746343 2.48952921 2.66735273 0 0 Z " fill="#6ADF88" transform="translate(43,119)"/>
<path d="M0 0 C6.875 3.75 6.875 3.75 8 6 C6.68 6 5.36 6 4 6 C4 5.34 4 4.68 4 4 C2.68 3.67 1.36 3.34 0 3 C0 2.01 0 1.02 0 0 Z " fill="#4BD56C" transform="translate(168,262)"/>
<path d="M0 0 C2.31 0.66 4.62 1.32 7 2 C7 2.99 7 3.98 7 5 C3.34683329 3.75023244 2.21934164 3.32901247 0 0 Z " fill="#5FDC82" transform="translate(227,257)"/>
<path d="M0 0 C0.66 0 1.32 0 2 0 C2 0.66 2 1.32 2 2 C2.99 2.33 3.98 2.66 5 3 C5 3.66 5 4.32 5 5 C3.02 5 1.04 5 -1 5 C-0.67 3.35 -0.34 1.7 0 0 Z " fill="#10D544" transform="translate(129,234)"/>
<path d="M0 0 C4.31392226 0.4793247 6.16569547 1.7457985 9 5 C6.69 4.34 4.38 3.68 2 3 C2 2.34 2 1.68 2 1 C1.34 0.67 0.68 0.34 0 0 Z " fill="#45D466" transform="translate(103,215)"/>
</svg>
