<?xml version="1.0" encoding="UTF-8"?>
<svg version="1.1" xmlns="http://www.w3.org/2000/svg" width="1280" height="1280">
<path d="M0 0 C19.06789618 -0.4189979 19.06789618 -0.4189979 27.34228516 2.06640625 C28.11572266 2.28425781 28.88916016 2.50210938 29.68603516 2.7265625 C37.47752364 5.10296649 43.88193641 9.1565412 50.34228516 14.06640625 C50.67228516 14.72640625 51.00228516 15.38640625 51.34228516 16.06640625 C52.20853516 16.45828125 53.07478516 16.85015625 53.96728516 17.25390625 C59.75539596 20.36233613 64.45225423 25.11634258 67.34228516 31.06640625 C67.34228516 31.72640625 67.34228516 32.38640625 67.34228516 33.06640625 C68.33228516 33.39640625 69.32228516 33.72640625 70.34228516 34.06640625 C71.7394079 36.02237809 73.06156145 38.03231565 74.34228516 40.06640625 C75.25307537 41.32069448 76.16975377 42.57072828 77.09228516 43.81640625 C79.34228516 47.06640625 79.34228516 47.06640625 79.34228516 49.06640625 C80.33228516 49.39640625 81.32228516 49.72640625 82.34228516 50.06640625 C83.72900391 52.0625 83.72900391 52.0625 85.02978516 54.50390625 C85.46677734 55.30699219 85.90376953 56.11007812 86.35400391 56.9375 C87.34228516 59.06640625 87.34228516 59.06640625 87.34228516 61.06640625 C88.33228516 61.39640625 89.32228516 61.72640625 90.34228516 62.06640625 C91.72900391 64.0625 91.72900391 64.0625 93.02978516 66.50390625 C93.46677734 67.30699219 93.90376953 68.11007812 94.35400391 68.9375 C95.34228516 71.06640625 95.34228516 71.06640625 95.34228516 73.06640625 C96.33228516 73.39640625 97.32228516 73.72640625 98.34228516 74.06640625 C99.5090332 75.70874023 99.5090332 75.70874023 100.60400391 77.8125 C101.00039063 78.56724609 101.39677734 79.32199219 101.80517578 80.09960938 C102.41135742 81.28973633 102.41135742 81.28973633 103.02978516 82.50390625 C103.44550781 83.29345703 103.86123047 84.08300781 104.28955078 84.89648438 C107.34228516 90.77638162 107.34228516 90.77638162 107.34228516 93.06640625 C108.33228516 93.39640625 109.32228516 93.72640625 110.34228516 94.06640625 C111.5090332 95.70874023 111.5090332 95.70874023 112.60400391 97.8125 C113.00039063 98.56724609 113.39677734 99.32199219 113.80517578 100.09960938 C114.41135742 101.28973633 114.41135742 101.28973633 115.02978516 102.50390625 C115.44550781 103.29345703 115.86123047 104.08300781 116.28955078 104.89648438 C119.34228516 110.77638162 119.34228516 110.77638162 119.34228516 113.06640625 C120.33228516 113.39640625 121.32228516 113.72640625 122.34228516 114.06640625 C123.70069289 116.23805143 124.88012631 118.34979296 126.02978516 120.62890625 C126.55088867 121.63449585 126.55088867 121.63449585 127.08251953 122.66040039 C128.18103188 124.78988143 129.26369553 126.92677297 130.34228516 129.06640625 C130.67953613 129.7325293 131.01678711 130.39865234 131.36425781 131.08496094 C133.38206611 135.07712008 135.37491932 139.08126296 137.35986328 143.08984375 C138.30008714 144.98150686 139.24890093 146.8685307 140.20166016 148.75390625 C144.43137338 157.1319286 148.56024738 165.55907616 152.65478516 174.00390625 C153.17073242 175.05827881 153.68667969 176.11265137 154.21826172 177.19897461 C156.74685815 182.43921262 158.98332184 187.58816501 160.71801758 193.14282227 C161.55499982 195.72185358 162.66704431 198.12552141 163.84228516 200.56640625 C165.71814119 204.59249725 167.25757246 208.57694782 168.59228516 212.80859375 C169.43180421 215.3358959 170.4031162 217.78655994 171.40478516 220.25390625 C175.15286171 229.52395818 175.15286171 229.52395818 175.77978516 234.62890625 C176.12207096 238.0481352 176.12207096 238.0481352 177.84228516 240.56640625 C179.72593988 243.70583079 179.88346921 246.46142384 180.34228516 250.06640625 C180.83015503 251.03380737 180.83015503 251.03380737 181.32788086 252.02075195 C183.08215278 255.55842811 183.1552116 259.36311522 183.52978516 263.25390625 C183.65885254 264.57781372 183.65885254 264.57781372 183.79052734 265.9284668 C185.74411773 288.53864104 179.75010828 308.73957045 166.34228516 327.06640625 C164.62771972 328.80656221 162.88346899 330.31243875 160.95556641 331.80859375 C159.12136523 333.18010226 159.12136523 333.18010226 156.90478516 335.56640625 C153.6213693 338.76973879 150.06231992 341.39363516 146.34228516 344.06640625 C145.46185547 344.70578125 144.58142578 345.34515625 143.67431641 346.00390625 C136.60110572 351.06640625 136.60110572 351.06640625 134.34228516 351.06640625 C134.01228516 352.05640625 133.68228516 353.04640625 133.34228516 354.06640625 C131.35982117 355.10073529 129.358152 356.09879017 127.34228516 357.06640625 C126.92591797 357.49566406 126.50955078 357.92492187 126.08056641 358.3671875 C123.48096643 360.9083695 120.43569108 362.77251032 117.40478516 364.75390625 C116.73672852 365.19524902 116.06867188 365.6365918 115.38037109 366.09130859 C113.36970857 367.41945704 111.35635123 368.7434264 109.34228516 370.06640625 C100.20832003 376.07932714 91.27001179 382.2834953 82.59228516 388.94140625 C80.02063762 390.89286436 77.38690282 392.71255391 74.68994141 394.484375 C74.02768555 394.91959473 73.36542969 395.35481445 72.68310547 395.80322266 C71.36196486 396.66670286 70.03724793 397.52474358 68.70849609 398.37646484 C62.38367631 402.50256282 57.89339981 406.39851505 55.70947266 413.796875 C55.14316732 417.29712393 56.05367001 419.81418708 57.34228516 423.06640625 C57.80634766 424.73703125 57.80634766 424.73703125 58.27978516 426.44140625 C58.63041016 427.30765625 58.98103516 428.17390625 59.34228516 429.06640625 C60.33228516 429.39640625 61.32228516 429.72640625 62.34228516 430.06640625 C63.78728366 432.04123755 65.06743544 433.98638829 66.34228516 436.06640625 C66.78185547 436.73800781 67.22142578 437.40960937 67.67431641 438.1015625 C69.82748797 441.42129387 71.54959018 444.14648605 72.34228516 448.06640625 C73.00228516 448.06640625 73.66228516 448.06640625 74.34228516 448.06640625 C75.85791016 450.19140625 75.85791016 450.19140625 77.59228516 453.06640625 C80.27287836 457.42166775 83.09169034 461.50887072 86.27587891 465.5078125 C87.34228516 467.06640625 87.34228516 467.06640625 87.34228516 469.06640625 C88.33228516 469.39640625 89.32228516 469.72640625 90.34228516 470.06640625 C91.00895182 472.06640625 91.67561849 474.06640625 92.34228516 476.06640625 C93.33228516 476.39640625 94.32228516 476.72640625 95.34228516 477.06640625 C99.34228516 482.43783482 99.34228516 482.43783482 99.34228516 485.06640625 C100.33228516 485.39640625 101.32228516 485.72640625 102.34228516 486.06640625 C103.7394079 488.02237809 105.06156145 490.03231565 106.34228516 492.06640625 C107.25307537 493.32069448 108.16975377 494.57072828 109.09228516 495.81640625 C111.34228516 499.06640625 111.34228516 499.06640625 111.34228516 501.06640625 C112.33228516 501.39640625 113.32228516 501.72640625 114.34228516 502.06640625 C115.63567451 503.55380401 116.92535524 505.04604976 118.15087891 506.58984375 C119.34086006 508.12836205 119.34086006 508.12836205 120.90478516 509.56640625 C123.06561726 511.82118758 124.61186116 514.47077026 126.34228516 517.06640625 C127.2469616 518.15977235 128.16356241 519.24339043 129.09228516 520.31640625 C131.34228516 523.06640625 131.34228516 523.06640625 131.34228516 525.06640625 C132.33228516 525.39640625 133.32228516 525.72640625 134.34228516 526.06640625 C136.32857694 528.29346067 138.00803337 530.33790877 139.25634766 533.05859375 C140.4650283 535.2933486 141.65303101 536.33875395 143.65478516 537.87890625 C146.18570843 539.94966165 148.08577809 541.91220739 149.90478516 544.62890625 C152.24271953 548.12052719 155.08127549 550.40435754 158.34228516 553.06640625 C159.9363034 554.80744559 161.44978936 556.5940009 162.94775391 558.41796875 C164.32927462 560.11262852 164.32927462 560.11262852 166.01806641 561.65234375 C167.34228516 563.06640625 167.34228516 563.06640625 167.34228516 565.06640625 C168.33228516 565.39640625 169.32228516 565.72640625 170.34228516 566.06640625 C171.53902202 567.49584195 172.7313833 568.92945481 173.88916016 570.390625 C175.41981317 572.15581355 177.04033285 573.58175424 178.84228516 575.06640625 C182.1056707 577.76592388 184.6357826 580.80472369 187.34228516 584.06640625 C188.40888531 584.96172755 189.4924988 585.83717789 190.59228516 586.69140625 C194.09408372 589.71568683 194.09408372 589.71568683 194.34228516 593.06640625 C194.89916016 593.10765625 195.45603516 593.14890625 196.02978516 593.19140625 C198.89855008 594.27688487 200.0798837 596.0127256 201.92431641 598.390625 C203.43387896 600.17465347 205.03843643 601.58341565 206.84228516 603.06640625 C210.10656693 605.76788082 212.62746895 608.8086268 215.34228516 612.06640625 C217.18521 613.68910737 219.06311954 615.24369919 220.98681641 616.76953125 C221.43412109 617.1975 221.88142578 617.62546875 222.34228516 618.06640625 C222.34228516 618.72640625 222.34228516 619.38640625 222.34228516 620.06640625 C222.94556641 620.16695312 223.54884766 620.2675 224.17041016 620.37109375 C226.7556685 621.1987484 227.46514551 622.0569819 229.09228516 624.19140625 C232.44694694 628.3254339 236.26873382 631.65809213 240.34228516 635.06640625 C241.33228516 635.91203125 242.32228516 636.75765625 243.34228516 637.62890625 C246.41432027 640.12493478 249.57626022 642.44407769 252.80322266 644.734375 C253.31111328 645.17394531 253.81900391 645.61351562 254.34228516 646.06640625 C254.34228516 646.72640625 254.34228516 647.38640625 254.34228516 648.06640625 C254.89916016 648.12828125 255.45603516 648.19015625 256.02978516 648.25390625 C259.32349299 649.41115495 260.9373327 651.54959554 263.34228516 654.06640625 C267.61305158 657.96034034 272.11853564 661.43787718 276.83837891 664.76953125 C277.33466797 665.1975 277.83095703 665.62546875 278.34228516 666.06640625 C278.34228516 666.72640625 278.34228516 667.38640625 278.34228516 668.06640625 C278.89916016 668.12828125 279.45603516 668.19015625 280.02978516 668.25390625 C282.66286799 669.17904346 283.79449393 670.53358456 285.65869141 672.54296875 C287.87451008 674.54800189 290.29795832 676.00224291 292.84228516 677.56640625 C296.91361045 680.07850058 299.96055022 682.68467132 303.34228516 686.06640625 C306.12634538 687.92520017 308.95541374 689.68421835 311.81884766 691.41796875 C313.98882868 692.83551053 315.57000401 694.20819632 317.34228516 696.06640625 C318.00228516 696.39640625 318.66228516 696.72640625 319.34228516 697.06640625 C319.34228516 697.72640625 319.34228516 698.38640625 319.34228516 699.06640625 C320.31166016 699.33453125 321.28103516 699.60265625 322.27978516 699.87890625 C323.79572266 700.46671875 323.79572266 700.46671875 325.34228516 701.06640625 C325.67228516 702.05640625 326.00228516 703.04640625 326.34228516 704.06640625 C327.98889008 704.78118905 329.66026235 705.43949198 331.34228516 706.06640625 C333.18270642 707.21015538 334.99340108 708.40247058 336.77978516 709.62890625 C337.81876953 710.33273437 338.85775391 711.0365625 339.92822266 711.76171875 C340.47833008 712.13458008 341.0284375 712.50744141 341.59521484 712.89160156 C344.67617426 714.96337025 347.78769208 716.98705948 350.90478516 719.00390625 C351.50025146 719.39328369 352.09571777 719.78266113 352.70922852 720.18383789 C357.99694762 723.62020541 357.99694762 723.62020541 364.15478516 723.31640625 C365.55514312 722.91520881 366.95133285 722.49908798 368.34228516 722.06640625 C369.35291016 721.75703125 370.36353516 721.44765625 371.40478516 721.12890625 C375.23431576 718.44008689 376.96469808 715.30595513 379.34228516 711.3203125 C381.9788415 707.03075892 384.91464695 702.99354114 387.87841797 698.92651367 C390.20301639 695.71980493 392.33711799 692.48002864 394.34228516 689.06640625 C395.68156402 686.95273247 397.03632324 684.84880403 398.40478516 682.75390625 C399.09701172 681.68527344 399.78923828 680.61664062 400.50244141 679.515625 C401.10958984 678.70738281 401.71673828 677.89914062 402.34228516 677.06640625 C403.00228516 677.06640625 403.66228516 677.06640625 404.34228516 677.06640625 C404.60783203 676.50953125 404.87337891 675.95265625 405.14697266 675.37890625 C409.20713125 667.52395891 414.5237763 660.23532367 419.44384766 652.90234375 C420.5937633 651.18456852 421.736512 649.46192508 422.86572266 647.73046875 C426.40963814 642.30690749 430.21973191 637.11639357 434.14306641 631.9609375 C435.43149295 630.26515762 436.7064527 628.55869822 437.94775391 626.828125 C447.4767334 613.82070055 458.54160196 603.53947613 473.34228516 597.06640625 C474.22271484 596.68097656 475.10314453 596.29554688 476.01025391 595.8984375 C478.27336433 595.09099609 480.14379593 594.74546736 482.52978516 594.56640625 C485.77001533 594.27377463 488.80374069 593.75662981 491.96728516 593.00390625 C504.57557084 590.39597157 517.2807903 591.96697794 529.34228516 596.06640625 C531.27812007 596.66862183 533.21402134 597.27064293 535.15161133 597.8671875 C541.29187233 599.75984802 547.36369028 601.70673313 553.34228516 604.06640625 C554.90269531 604.65421875 554.90269531 604.65421875 556.49462891 605.25390625 C558.21359375 605.90359375 558.21359375 605.90359375 559.96728516 606.56640625 C561.03205078 606.96859375 562.09681641 607.37078125 563.19384766 607.78515625 C566.33493285 609.06341425 569.31560444 610.54045472 572.34228516 612.06640625 C574.33096229 612.76612598 576.32836567 613.44305022 578.34228516 614.06640625 C578.34228516 614.72640625 578.34228516 615.38640625 578.34228516 616.06640625 C579.33099609 616.15664063 580.31970703 616.246875 581.33837891 616.33984375 C585.77356757 616.97900978 589.41838051 618.71501934 593.40478516 620.69140625 C594.13995361 621.04605957 594.87512207 621.40071289 595.63256836 621.76611328 C599.22168295 623.50514088 602.78902901 625.28638505 606.35009766 627.08203125 C606.97263428 627.39575684 607.5951709 627.70948242 608.23657227 628.03271484 C609.92517269 628.888395 611.60852472 629.75440986 613.29150391 630.62109375 C616.26208299 632.02841035 619.20448009 633.09730903 622.34228516 634.06640625 C622.34228516 634.72640625 622.34228516 635.38640625 622.34228516 636.06640625 C624.65228516 636.39640625 626.96228516 636.72640625 629.34228516 637.06640625 C629.67228516 638.05640625 630.00228516 639.04640625 630.34228516 640.06640625 C632.21615732 640.86853253 632.21615732 640.86853253 634.40478516 641.25390625 C635.505 641.49173828 635.505 641.49173828 636.62744141 641.734375 C637.19333984 641.84394531 637.75923828 641.95351563 638.34228516 642.06640625 C638.34228516 642.72640625 638.34228516 643.38640625 638.34228516 644.06640625 C639.01775391 644.32550781 639.69322266 644.58460938 640.38916016 644.8515625 C643.8543393 646.27705286 647.2272885 647.85980519 650.59228516 649.50390625 C651.22908203 649.80361328 651.86587891 650.10332031 652.52197266 650.41210938 C654.16884652 651.21977837 655.76089831 652.137031 657.34228516 653.06640625 C657.67228516 654.05640625 658.00228516 655.04640625 658.34228516 656.06640625 C659.29103516 656.21078125 660.23978516 656.35515625 661.21728516 656.50390625 C664.34228516 657.06640625 664.34228516 657.06640625 666.34228516 658.06640625 C666.34228516 658.72640625 666.34228516 659.38640625 666.34228516 660.06640625 C667.00615234 660.31132813 667.67001953 660.55625 668.35400391 660.80859375 C672.08612486 662.37949956 675.59678423 664.26429761 679.15478516 666.19140625 C679.84765625 666.56394531 680.54052734 666.93648437 681.25439453 667.3203125 C682.95163352 668.23331002 684.64713653 669.14953341 686.34228516 670.06640625 C686.34228516 670.72640625 686.34228516 671.38640625 686.34228516 672.06640625 C687.02291016 672.31390625 687.70353516 672.56140625 688.40478516 672.81640625 C691.91093599 674.30838533 695.05848884 676.13476136 698.34228516 678.06640625 C698.34228516 678.72640625 698.34228516 679.38640625 698.34228516 680.06640625 C699.02291016 680.31390625 699.70353516 680.56140625 700.40478516 680.81640625 C703.91093599 682.30838533 707.05848884 684.13476136 710.34228516 686.06640625 C710.34228516 686.72640625 710.34228516 687.38640625 710.34228516 688.06640625 C711.02291016 688.31390625 711.70353516 688.56140625 712.40478516 688.81640625 C715.91093599 690.30838533 719.05848884 692.13476136 722.34228516 694.06640625 C722.34228516 694.72640625 722.34228516 695.38640625 722.34228516 696.06640625 C723.02291016 696.31390625 723.70353516 696.56140625 724.40478516 696.81640625 C727.91093599 698.30838533 731.05848884 700.13476136 734.34228516 702.06640625 C734.34228516 702.72640625 734.34228516 703.38640625 734.34228516 704.06640625 C735.08478516 704.33453125 735.82728516 704.60265625 736.59228516 704.87890625 C739.23290464 706.01917376 741.1978136 707.16020931 743.34228516 709.06640625 C743.34228516 709.72640625 743.34228516 710.38640625 743.34228516 711.06640625 C744.20853516 711.25203125 745.07478516 711.43765625 745.96728516 711.62890625 C749.86012763 713.28696878 751.39951746 715.09001275 753.96728516 718.33984375 C755.37739269 720.19473922 755.37739269 720.19473922 757.46728516 722.06640625 C760.21275817 724.9949108 763.34228516 728.93950534 763.34228516 733.06640625 C764.00228516 733.06640625 764.66228516 733.06640625 765.34228516 733.06640625 C767.94589298 739.15911288 770.03692028 745.18711032 771.63134766 751.62109375 C772.20981973 754.01808794 772.20981973 754.01808794 773.37011719 755.72729492 C774.76553187 759.08477058 774.62776852 762.3604005 774.60791016 765.9375 C774.60982361 766.69684341 774.61173706 767.45618683 774.6137085 768.23854065 C774.61506686 769.84140353 774.61139475 771.44427753 774.60302734 773.04711914 C774.59233742 775.49195263 774.60292647 777.93604888 774.61572266 780.38085938 C774.61440071 781.94140786 774.61183759 783.50195589 774.60791016 785.0625 C774.61195862 785.78972763 774.61600708 786.51695526 774.62017822 787.26622009 C774.58258349 791.36563758 773.97064082 794.33547342 772.34228516 798.06640625 C771.92649468 800.68273237 771.92649468 800.68273237 771.77978516 803.41015625 C771.66763672 804.90869141 771.66763672 804.90869141 771.55322266 806.4375 C771.48361328 807.47003906 771.41400391 808.50257813 771.34228516 809.56640625 C771.20390766 811.61900583 771.05831839 813.67113464 770.90478516 815.72265625 C770.81390625 817.08100586 770.81390625 817.08100586 770.72119141 818.46679688 C770.31473048 821.25545405 769.40550573 823.46649969 768.34228516 826.06640625 C767.93167801 828.29140418 767.93167801 828.29140418 767.77978516 830.53515625 C767.70501953 831.35371094 767.63025391 832.17226562 767.55322266 833.015625 C767.48361328 833.85738281 767.41400391 834.69914062 767.34228516 835.56640625 C766.90781862 840.8202331 766.40048588 845.17817953 764.34228516 850.06640625 C763.95226651 852.55819207 763.62300787 855.0599534 763.34228516 857.56640625 C762.56329871 864.52164237 762.56329871 864.52164237 761.34228516 867.53125 C759.73128898 871.61537702 759.55828803 875.93487705 759.13134766 880.27148438 C758.72339357 884.01692491 758.02962813 886.74444976 756.34228516 890.06640625 C755.94492351 892.53611923 755.61825644 895.01770064 755.34228516 897.50390625 C754.83068825 902.10371056 754.08663009 905.80775163 752.34228516 910.06640625 C751.76033743 913.40452308 751.3354388 916.74483227 750.90478516 920.10546875 C750.34228516 923.06640625 750.34228516 923.06640625 748.34228516 926.06640625 C748.01150688 927.63830983 747.74918828 929.22513085 747.52978516 930.81640625 C745.80436493 941.04665373 742.31057233 950.96810258 737.34228516 960.06640625 C736.75866006 961.31627005 736.17533971 962.56627619 735.59228516 963.81640625 C733.27208989 968.46589558 730.34602676 972.68326346 727.42041016 976.96875 C725.4462889 979.91137811 723.61161175 982.90899061 721.77978516 985.94140625 C719.25238048 989.95416492 716.71664782 992.84024684 712.97119141 995.72265625 C711.25719158 997.13660335 710.00913421 998.62280839 708.65478516 1000.37890625 C706.29152225 1003.12540098 705.69481028 1003.46774105 702.34228516 1004.06640625 C702.01228516 1005.05640625 701.68228516 1006.04640625 701.34228516 1007.06640625 C690.5869888 1016.02032292 677.45543662 1022.36669949 664.42041016 1027.265625 C662.10171656 1028.12404043 662.10171656 1028.12404043 659.02978516 1029.69140625 C654.47582421 1031.38949338 650.04342951 1031.95173165 645.23291016 1032.5390625 C642.15859049 1032.90260547 642.15859049 1032.90260547 639.34228516 1035.06640625 C637.15493774 1035.32037354 637.15493774 1035.32037354 634.58300781 1035.32519531 C633.13603012 1035.33465179 633.13603012 1035.33465179 631.65982056 1035.34429932 C630.6191745 1035.34025085 629.57852844 1035.33620239 628.50634766 1035.33203125 C627.43484467 1035.3339447 626.36334167 1035.33585815 625.2593689 1035.33782959 C622.99143235 1035.3391913 620.723488 1035.33549583 618.45556641 1035.32714844 C614.98793951 1035.31646986 611.52083317 1035.32703359 608.05322266 1035.33984375 C605.85009651 1035.33852174 603.6469707 1035.3359585 601.44384766 1035.33203125 C600.40725006 1035.33607971 599.37065247 1035.34012817 598.30264282 1035.34429932 C597.33168671 1035.337995 596.36073059 1035.33169067 595.36035156 1035.32519531 C594.08485947 1035.32280853 594.08485947 1035.32280853 592.78359985 1035.32037354 C590.01469669 1035.03232758 587.89048351 1034.159423 585.34228516 1033.06640625 C582.72595904 1032.65061577 582.72595904 1032.65061577 579.99853516 1032.50390625 C578.5 1032.39175781 578.5 1032.39175781 576.97119141 1032.27734375 C575.93865234 1032.20773437 574.90611328 1032.138125 573.84228516 1032.06640625 C571.78968558 1031.92802875 569.73755677 1031.78243948 567.68603516 1031.62890625 C566.32768555 1031.53802734 566.32768555 1031.53802734 564.94189453 1031.4453125 C562.1529914 1031.03881573 559.94880286 1030.11474644 557.34228516 1029.06640625 C554.82378635 1028.65175446 554.82378635 1028.65175446 552.21728516 1028.50390625 C550.78642578 1028.39175781 550.78642578 1028.39175781 549.32666016 1028.27734375 C547.84939453 1028.17292969 547.84939453 1028.17292969 546.34228516 1028.06640625 C544.38341628 1027.92795217 542.42503675 1027.78235165 540.46728516 1027.62890625 C539.17177734 1027.53802734 539.17177734 1027.53802734 537.85009766 1027.4453125 C535.10895243 1027.03115193 532.89308012 1026.13144765 530.34228516 1025.06640625 C526.74352002 1024.47885276 523.14276297 1024.05758333 519.52197266 1023.62890625 C516.34228516 1023.06640625 516.34228516 1023.06640625 513.34228516 1021.06640625 C510.8709208 1020.65735284 508.45378651 1020.32561682 505.96728516 1020.06640625 C501.35358016 1019.5568057 497.6019071 1018.86279633 493.34228516 1017.06640625 C491.10183153 1016.52523388 488.85046127 1016.02807781 486.59228516 1015.56640625 C485.35865234 1015.30988281 484.12501953 1015.05335938 482.85400391 1014.7890625 C481.69513672 1014.55058594 480.53626953 1014.31210938 479.34228516 1014.06640625 C477.69547889 1013.71679145 476.04946017 1013.36341353 474.40478516 1013.00390625 C473.463125 1012.80087891 473.463125 1012.80087891 472.50244141 1012.59375 C469.42228155 1011.84181224 466.38768213 1010.94805352 463.34228516 1010.06640625 C462.18728516 1009.73640625 461.03228516 1009.40640625 459.84228516 1009.06640625 C456.34228516 1008.06640625 452.84228516 1007.06640625 449.34228516 1006.06640625 C448.22208984 1005.75574219 447.10189453 1005.44507813 445.94775391 1005.125 C441.80626935 1003.90902783 437.73758724 1002.526575 433.65478516 1001.12890625 C427.33825808 998.98274031 421.05783442 997.12144192 414.52978516 995.70703125 C412.34228516 995.06640625 412.34228516 995.06640625 410.34228516 993.06640625 C408.28972282 992.30667575 408.28972282 992.30667575 405.90478516 991.69140625 C398.53975209 989.58256944 391.41658345 986.93660586 384.34228516 984.00390625 C379.84869068 982.16758158 375.30705881 980.91585443 370.59228516 979.77734375 C368.34228516 979.06640625 368.34228516 979.06640625 366.34228516 977.06640625 C364.02137398 976.00265529 361.70979283 975.01603502 359.34228516 974.06640625 C358.57271484 973.75574219 357.80314453 973.44507813 357.01025391 973.125 C353.59953078 971.75533953 350.18591424 970.39441332 346.76025391 969.0625 C342.16355761 967.26195076 337.75389988 965.31280515 333.36962891 963.046875 C331.24980943 962.02168292 329.11088556 961.20107858 326.90478516 960.37890625 C321.21176667 958.17230994 315.92144769 955.26998875 310.58276367 952.32739258 C306.51570196 950.11136841 302.49757737 948.30343793 298.13769531 946.74389648 C295.73648435 945.83780994 293.56605975 944.65538212 291.34228516 943.37890625 C286.8582092 940.8712825 282.32160733 938.52890402 277.71728516 936.25390625 C271.82096167 933.33169601 265.97161856 930.33143896 260.15478516 927.25390625 C259.44821777 926.88096436 258.74165039 926.50802246 258.01367188 926.1237793 C254.39244685 924.19975815 250.84069163 922.20879322 247.34228516 920.06640625 C244.18390924 918.23454822 241.02761177 916.42854505 237.79931641 914.72265625 C232.13116051 911.71669487 226.87234179 908.45170115 221.65869141 904.71484375 C216.69965897 901.18581898 211.50514768 898.15036077 206.19946289 895.1730957 C200.95463193 892.22421415 195.92589413 889.21779699 191.18603516 885.4921875 C186.89467157 882.17365422 182.28518016 879.27145696 177.67822266 876.4140625 C172.07894715 872.93620264 166.95599544 869.21426596 161.86572266 865.03125 C159.31725344 863.04691561 156.71103967 861.33097746 153.96728516 859.62890625 C146.86911998 855.22280088 139.75314884 850.48791225 133.83837891 844.5546875 C131.29886085 842.02311786 128.68042986 839.98236697 125.77978516 837.87890625 C121.48723669 834.71209966 117.3541428 831.45225581 113.27978516 828.00390625 C109.42530127 824.74631094 105.51362993 821.68407437 101.40478516 818.75390625 C97.68806831 816.0991085 94.49319819 813.38763891 91.34228516 810.06640625 C86.93044974 806.02307681 82.32473792 802.24363962 77.65478516 798.50390625 C74.68698839 796.09946018 71.94203292 793.83307912 69.59228516 790.81640625 C67.27227294 787.98083576 65.01600151 786.30233562 62.02197266 784.265625 C59.49971488 782.46485026 57.48044416 780.30638235 55.34228516 778.06640625 C49.58331279 772.18745529 43.7174917 766.65080925 37.35400391 761.4375 C36.71076172 760.90253906 36.06751953 760.36757813 35.40478516 759.81640625 C34.81826172 759.336875 34.23173828 758.85734375 33.62744141 758.36328125 C32.34228516 757.06640625 32.34228516 757.06640625 32.34228516 755.06640625 C31.02228516 754.40640625 29.70228516 753.74640625 28.34228516 753.06640625 C28.34228516 752.40640625 28.34228516 751.74640625 28.34228516 751.06640625 C27.35228516 750.73640625 26.36228516 750.40640625 25.34228516 750.06640625 C23.98291016 748.71875 23.98291016 748.71875 22.59228516 747.00390625 C22.06376953 746.36710938 21.53525391 745.7303125 20.99072266 745.07421875 C20.44673828 744.41164063 19.90275391 743.7490625 19.34228516 743.06640625 C14.73463399 737.56085383 9.79828569 732.47957098 4.69555664 727.43896484 C1.0256913 723.79759315 -2.35882623 720.04198996 -5.65771484 716.06640625 C-6.20298828 715.55207031 -6.74826172 715.03773438 -7.31005859 714.5078125 C-8.65771484 713.06640625 -8.65771484 713.06640625 -8.65771484 711.06640625 C-9.64771484 710.73640625 -10.63771484 710.40640625 -11.65771484 710.06640625 C-12.90888978 708.61767737 -14.15460129 707.16295991 -15.34521484 705.6640625 C-16.76151406 703.87991572 -16.76151406 703.87991572 -19.03271484 701.75390625 C-21.9501342 698.76702453 -24.42603166 695.58389534 -26.96240234 692.2734375 C-29.82284725 688.54958641 -32.72559535 684.97462525 -36.09521484 681.69140625 C-38.671373 679.05241497 -40.76488726 676.31873472 -42.93896484 673.3515625 C-44.85911668 670.79863335 -46.87223944 668.34082809 -48.90771484 665.87890625 C-52.71761661 661.26220176 -56.36576826 656.54663184 -59.98120117 651.77832031 C-62.54973521 648.42066744 -65.23773359 645.24282813 -68.09521484 642.12890625 C-70.99782518 638.94820151 -72.793902 635.96346947 -74.65771484 632.06640625 C-75.50440338 631.02197137 -76.38341548 630.00339929 -77.28271484 629.00390625 C-81.16202999 624.66762917 -84.34237429 619.85521406 -87.60693359 615.0546875 C-88.78339917 613.34040909 -89.98185098 611.63982709 -91.23974609 609.984375 C-92.65771484 608.06640625 -92.65771484 608.06640625 -94.10693359 605.64453125 C-95.7532635 602.90755963 -97.56857135 600.38193711 -99.47021484 597.81640625 C-103.00982295 592.98497037 -106.39876137 588.09062619 -109.65771484 583.06640625 C-110.23521484 582.17953125 -110.81271484 581.29265625 -111.40771484 580.37890625 C-114.15679805 576.11308748 -116.81875793 571.85085006 -119.22021484 567.37890625 C-120.81291347 564.43813918 -122.53393904 561.82407198 -124.59521484 559.19140625 C-127.64797121 555.2653098 -129.95388213 551.0756305 -132.26318359 546.6796875 C-133.64730761 544.08590887 -135.13207519 541.5789826 -136.65771484 539.06640625 C-137.64546663 537.35236638 -138.62072478 535.63175536 -139.59521484 533.91015625 C-140.379481 532.54922379 -141.18791389 531.20215116 -142.00927734 529.86328125 C-144.14225713 526.24429186 -146.08279069 522.53638735 -148.03271484 518.81640625 C-153.41498553 508.54194578 -153.41498553 508.54194578 -159.22021484 498.50390625 C-161.21899748 495.11466612 -162.92238285 491.59600605 -164.65771484 488.06640625 C-165.32334531 486.73255532 -165.99000099 485.39921547 -166.65771484 484.06640625 C-174.65771484 468.06640625 -174.65771484 468.06640625 -175.66162109 466.046875 C-176.30270484 464.77224967 -176.95548921 463.50340775 -177.62255859 462.2421875 C-179.74697932 458.17251405 -181.4390328 454.06143024 -183.03271484 449.75390625 C-184.60985467 445.543377 -186.33201615 441.69870792 -188.59521484 437.81640625 C-191.65600557 432.46002248 -193.63292684 426.91336459 -195.56567383 421.07910156 C-196.96843151 416.86640962 -198.65053355 413.0385124 -200.65771484 409.06640625 C-201.99474986 405.46791736 -203.23240134 401.8432579 -204.47412109 398.2109375 C-205.55877923 394.96993645 -205.55877923 394.96993645 -207.65771484 392.06640625 C-208.18505859 390.015625 -208.18505859 390.015625 -208.59521484 387.75390625 C-209.41896713 383.76924404 -210.80344935 380.70361933 -212.65771484 377.06640625 C-214.50543621 371.97268789 -216.16598395 366.82827605 -217.62255859 361.609375 C-218.64723671 358.10226915 -219.86653193 354.73331713 -221.15771484 351.31640625 C-223.07831975 346.03193485 -224.33544693 341.00661113 -225.19677734 335.46484375 C-225.85781669 332.02519834 -227.16770628 329.23267444 -228.65771484 326.06640625 C-230.69184567 320.32297803 -232.40702216 314.56797992 -233.47021484 308.56640625 C-234.30318964 304.16163551 -235.65367711 300.09991537 -237.15771484 295.87890625 C-239.45923293 289.379818 -240.53036998 283.15905153 -241.20068359 276.30859375 C-241.51568422 273.13562406 -241.51568422 273.13562406 -242.64599609 270.609375 C-244.42747205 266.13161111 -244.56671694 261.32369987 -245.09521484 256.5625 C-245.44367899 253.23278861 -245.44367899 253.23278861 -246.65771484 251.13696289 C-247.7849903 248.8028752 -248.02298213 247.01802081 -248.22021484 244.44140625 C-248.29498047 243.57 -248.36974609 242.69859375 -248.44677734 241.80078125 C-248.58740234 239.97786458 -248.72802734 238.15494792 -248.86865234 236.33203125 C-248.94341797 235.460625 -249.01818359 234.58921875 -249.09521484 233.69140625 C-249.15580078 232.89992188 -249.21638672 232.1084375 -249.27880859 231.29296875 C-249.68781567 228.88952512 -250.54833001 227.22206882 -251.65771484 225.06640625 C-252.05997978 222.40978155 -252.39489416 219.79848298 -252.65771484 217.12890625 C-253.12900493 211.78926411 -253.12900493 211.78926411 -254.65429688 206.6809082 C-258.48090401 196.71031555 -256.82199033 183.55530422 -256.78271484 172.94140625 C-256.78016693 172.12247894 -256.77761902 171.30355164 -256.7749939 170.45980835 C-256.75750533 165.67186005 -256.72472099 160.88424007 -256.67730713 156.09649658 C-256.66025705 154.32982124 -256.64761352 152.56310445 -256.63574219 150.79638672 C-256.51784835 139.60846142 -254.72898951 129.68096829 -251.28662109 119.02929688 C-250.73149541 117.29668409 -250.22224435 115.54951735 -249.72021484 113.80078125 C-245.56323668 99.91944346 -237.65112645 87.30817075 -228.65771484 76.06640625 C-227.9488559 74.75501721 -227.26315032 73.42863608 -226.65771484 72.06640625 C-225.99771484 72.06640625 -225.33771484 72.06640625 -224.65771484 72.06640625 C-223.99771484 70.74640625 -223.33771484 69.42640625 -222.65771484 68.06640625 C-221.99771484 68.06640625 -221.33771484 68.06640625 -220.65771484 68.06640625 C-219.99771484 66.74640625 -219.33771484 65.42640625 -218.65771484 64.06640625 C-217.99771484 64.06640625 -217.33771484 64.06640625 -216.65771484 64.06640625 C-215.99771484 62.74640625 -215.33771484 61.42640625 -214.65771484 60.06640625 C-213.99771484 60.06640625 -213.33771484 60.06640625 -212.65771484 60.06640625 C-212.32771484 59.07640625 -211.99771484 58.08640625 -211.65771484 57.06640625 C-210.00406078 56.04503168 -208.33394983 55.05028331 -206.65771484 54.06640625 C-205.55846023 53.14762627 -204.4763024 52.20817979 -203.40771484 51.25390625 C-197.19976588 45.85044311 -190.90036228 41.92454553 -183.18115234 39.0625 C-180.6244419 38.05327219 -178.27030782 36.85743471 -175.84521484 35.56640625 C-165.74751981 30.46310275 -154.68341893 28.28145553 -143.69970703 25.90429688 C-138.35649689 24.73745531 -133.15701635 23.37403238 -127.95336914 21.68579102 C-125.50348749 21.02479455 -123.18508588 20.75446787 -120.65771484 20.56640625 C-117.33206383 20.30547056 -114.45085254 19.79327774 -111.28271484 18.75390625 C-106.14556978 17.09860395 -100.94215891 16.00558731 -95.65771484 14.94140625 C-94.8270752 14.77084717 -93.99643555 14.60028809 -93.140625 14.42456055 C-88.88744553 13.58354345 -84.73264691 12.96205982 -80.40771484 12.63671875 C-76.20620614 12.27056974 -73.40696507 11.03297483 -69.65771484 9.06640625 C-66.99617209 8.60459852 -64.45968935 8.24907941 -61.78271484 8.00390625 C-55.59093093 7.3767045 -55.59093093 7.3767045 -49.53271484 6.00390625 C-45.83592225 5.10952094 -42.56997855 4.83208563 -38.78271484 4.62890625 C-34.56072166 4.38370073 -30.94382419 4.00692663 -26.97021484 2.56640625 C-18.38479262 -0.30473821 -8.95624228 0.22378265 0 0 Z " fill="#03DA46" transform="translate(286.65771484375,213.93359375)"/>
<path d="M0 0 C19.06789618 -0.4189979 19.06789618 -0.4189979 27.34228516 2.06640625 C28.11572266 2.28425781 28.88916016 2.50210938 29.68603516 2.7265625 C37.47752364 5.10296649 43.88193641 9.1565412 50.34228516 14.06640625 C50.67228516 14.72640625 51.00228516 15.38640625 51.34228516 16.06640625 C52.20853516 16.45828125 53.07478516 16.85015625 53.96728516 17.25390625 C59.66136178 20.31183629 64.62445264 25.12114761 67.34228516 31.06640625 C67.01228516 31.72640625 66.68228516 32.38640625 66.34228516 33.06640625 C65.66746094 32.23109375 65.66746094 32.23109375 64.97900391 31.37890625 C53.62057348 17.90357397 39.14977803 10.61843557 22.34228516 6.06640625 C21.42274048 5.80815063 21.42274048 5.80815063 20.48461914 5.54467773 C-5.50092334 -0.2565391 -35.7730193 8.60708888 -61.19940186 13.41424561 C-64.59198439 14.05401095 -67.98611171 14.68482313 -71.38085938 15.31298828 C-93.80503807 19.47321797 -116.12542307 23.9620421 -138.28271484 29.37890625 C-139.105177 29.5798288 -139.92763916 29.78075134 -140.77502441 29.98776245 C-162.28233074 34.78621379 -162.28233074 34.78621379 -182.40771484 43.31640625 C-183.10541992 43.70135254 -183.803125 44.08629883 -184.52197266 44.48291016 C-206.68785907 56.94425325 -223.80627646 73.19475756 -236.65771484 95.06640625 C-237.01494629 95.67242676 -237.37217773 96.27844727 -237.74023438 96.90283203 C-242.97867391 105.91997376 -246.85839356 114.98488249 -249.65771484 125.06640625 C-249.85381348 125.71899414 -250.04991211 126.37158203 -250.25195312 127.04394531 C-261.51039234 165.32079754 -250.38000773 210.67335332 -243.09771729 248.75817871 C-242.66767155 251.01417396 -242.24250833 253.27102655 -241.81933594 255.52832031 C-239.0844796 270.11339967 -236.32751298 284.68266356 -232.65771484 299.06640625 C-232.35349609 300.26910156 -232.04927734 301.47179687 -231.73583984 302.7109375 C-208.55669408 391.91265011 -171.27581882 476.99247864 -92.65771484 603.06640625 C-92.98771484 603.72640625 -93.31771484 604.38640625 -93.65771484 605.06640625 C-98.71598917 599.15384559 -103.32526188 593.30958289 -107.18505859 586.546875 C-109.2652418 583.04311815 -111.64359207 579.77771009 -114.04443359 576.48828125 C-115.84581797 573.78402383 -117.20674721 570.97206195 -118.65771484 568.06640625 C-119.85650921 566.1924594 -121.08719774 564.33862085 -122.34521484 562.50390625 C-128.46667607 553.42841878 -134.19087947 544.17025727 -139.33349609 534.50390625 C-140.20222932 532.90482209 -141.10779606 531.32509601 -142.05224609 529.76953125 C-144.18005145 526.18694899 -146.09859792 522.50623099 -148.03271484 518.81640625 C-153.41498553 508.54194578 -153.41498553 508.54194578 -159.22021484 498.50390625 C-161.21899748 495.11466612 -162.92238285 491.59600605 -164.65771484 488.06640625 C-165.32334531 486.73255532 -165.99000099 485.39921547 -166.65771484 484.06640625 C-174.65771484 468.06640625 -174.65771484 468.06640625 -175.66162109 466.046875 C-176.30270484 464.77224967 -176.95548921 463.50340775 -177.62255859 462.2421875 C-179.74697932 458.17251405 -181.4390328 454.06143024 -183.03271484 449.75390625 C-184.60985467 445.543377 -186.33201615 441.69870792 -188.59521484 437.81640625 C-191.65600557 432.46002248 -193.63292684 426.91336459 -195.56567383 421.07910156 C-196.96843151 416.86640962 -198.65053355 413.0385124 -200.65771484 409.06640625 C-201.99474986 405.46791736 -203.23240134 401.8432579 -204.47412109 398.2109375 C-205.55877923 394.96993645 -205.55877923 394.96993645 -207.65771484 392.06640625 C-208.18505859 390.015625 -208.18505859 390.015625 -208.59521484 387.75390625 C-209.41896713 383.76924404 -210.80344935 380.70361933 -212.65771484 377.06640625 C-214.50543621 371.97268789 -216.16598395 366.82827605 -217.62255859 361.609375 C-218.64723671 358.10226915 -219.86653193 354.73331713 -221.15771484 351.31640625 C-223.07831975 346.03193485 -224.33544693 341.00661113 -225.19677734 335.46484375 C-225.85781669 332.02519834 -227.16770628 329.23267444 -228.65771484 326.06640625 C-230.69184567 320.32297803 -232.40702216 314.56797992 -233.47021484 308.56640625 C-234.30318964 304.16163551 -235.65367711 300.09991537 -237.15771484 295.87890625 C-239.45923293 289.379818 -240.53036998 283.15905153 -241.20068359 276.30859375 C-241.51568422 273.13562406 -241.51568422 273.13562406 -242.64599609 270.609375 C-244.42747205 266.13161111 -244.56671694 261.32369987 -245.09521484 256.5625 C-245.44367899 253.23278861 -245.44367899 253.23278861 -246.65771484 251.13696289 C-247.7849903 248.8028752 -248.02298213 247.01802081 -248.22021484 244.44140625 C-248.29498047 243.57 -248.36974609 242.69859375 -248.44677734 241.80078125 C-248.58740234 239.97786458 -248.72802734 238.15494792 -248.86865234 236.33203125 C-248.94341797 235.460625 -249.01818359 234.58921875 -249.09521484 233.69140625 C-249.15580078 232.89992188 -249.21638672 232.1084375 -249.27880859 231.29296875 C-249.68781567 228.88952512 -250.54833001 227.22206882 -251.65771484 225.06640625 C-252.05997978 222.40978155 -252.39489416 219.79848298 -252.65771484 217.12890625 C-253.12900493 211.78926411 -253.12900493 211.78926411 -254.65429688 206.6809082 C-258.48090401 196.71031555 -256.82199033 183.55530422 -256.78271484 172.94140625 C-256.78016693 172.12247894 -256.77761902 171.30355164 -256.7749939 170.45980835 C-256.75750533 165.67186005 -256.72472099 160.88424007 -256.67730713 156.09649658 C-256.66025705 154.32982124 -256.64761352 152.56310445 -256.63574219 150.79638672 C-256.51784835 139.60846142 -254.72898951 129.68096829 -251.28662109 119.02929688 C-250.73149541 117.29668409 -250.22224435 115.54951735 -249.72021484 113.80078125 C-245.56323668 99.91944346 -237.65112645 87.30817075 -228.65771484 76.06640625 C-227.9488559 74.75501721 -227.26315032 73.42863608 -226.65771484 72.06640625 C-225.99771484 72.06640625 -225.33771484 72.06640625 -224.65771484 72.06640625 C-223.99771484 70.74640625 -223.33771484 69.42640625 -222.65771484 68.06640625 C-221.99771484 68.06640625 -221.33771484 68.06640625 -220.65771484 68.06640625 C-219.99771484 66.74640625 -219.33771484 65.42640625 -218.65771484 64.06640625 C-217.99771484 64.06640625 -217.33771484 64.06640625 -216.65771484 64.06640625 C-215.99771484 62.74640625 -215.33771484 61.42640625 -214.65771484 60.06640625 C-213.99771484 60.06640625 -213.33771484 60.06640625 -212.65771484 60.06640625 C-212.32771484 59.07640625 -211.99771484 58.08640625 -211.65771484 57.06640625 C-210.00406078 56.04503168 -208.33394983 55.05028331 -206.65771484 54.06640625 C-205.55846023 53.14762627 -204.4763024 52.20817979 -203.40771484 51.25390625 C-197.19976588 45.85044311 -190.90036228 41.92454553 -183.18115234 39.0625 C-180.6244419 38.05327219 -178.27030782 36.85743471 -175.84521484 35.56640625 C-165.74751981 30.46310275 -154.68341893 28.28145553 -143.69970703 25.90429688 C-138.35649689 24.73745531 -133.15701635 23.37403238 -127.95336914 21.68579102 C-125.50348749 21.02479455 -123.18508588 20.75446787 -120.65771484 20.56640625 C-117.33206383 20.30547056 -114.45085254 19.79327774 -111.28271484 18.75390625 C-106.14556978 17.09860395 -100.94215891 16.00558731 -95.65771484 14.94140625 C-94.8270752 14.77084717 -93.99643555 14.60028809 -93.140625 14.42456055 C-88.88744553 13.58354345 -84.73264691 12.96205982 -80.40771484 12.63671875 C-76.20620614 12.27056974 -73.40696507 11.03297483 -69.65771484 9.06640625 C-66.99617209 8.60459852 -64.45968935 8.24907941 -61.78271484 8.00390625 C-55.59093093 7.3767045 -55.59093093 7.3767045 -49.53271484 6.00390625 C-45.83592225 5.10952094 -42.56997855 4.83208563 -38.78271484 4.62890625 C-34.56072166 4.38370073 -30.94382419 4.00692663 -26.97021484 2.56640625 C-18.38479262 -0.30473821 -8.95624228 0.22378265 0 0 Z " fill="#F1FBF4" transform="translate(286.65771484375,213.93359375)"/>
<path d="M0 0 C1.93583491 0.60221558 3.87173618 1.20423668 5.80932617 1.80078125 C11.94958718 3.69344177 18.02140512 5.64032688 24 8 C25.04027344 8.391875 26.08054687 8.78375 27.15234375 9.1875 C28.29832031 9.620625 29.44429687 10.05375 30.625 10.5 C31.68976563 10.9021875 32.75453125 11.304375 33.8515625 11.71875 C36.9926477 12.997008 39.97331928 14.47404847 43 16 C44.98867713 16.69971973 46.98608051 17.37664397 49 18 C49 18.66 49 19.32 49 20 C44.59485688 19.28872252 40.56739565 17.82000892 36.41796875 16.234375 C34.91211255 15.6679603 33.40625307 15.10155435 31.90039062 14.53515625 C29.56177238 13.65019495 27.22372425 12.76374885 24.88598633 11.87646484 C-7.22398471 -0.73355589 -7.22398471 -0.73355589 -41 1 C-42.14210938 1.25652344 -43.28421875 1.51304687 -44.4609375 1.77734375 C-63.55866666 6.29029597 -79.43709673 18.35247509 -90.4375 34.5 C-90.93701172 35.21994141 -91.43652344 35.93988281 -91.95117188 36.68164062 C-93.04708691 38.26226171 -94.13989749 39.84503868 -95.22998047 41.4296875 C-97.78749936 45.1435577 -100.36569474 48.84294576 -102.94213867 52.54370117 C-104.31950233 54.52240524 -105.69596037 56.50174001 -107.0715332 58.48168945 C-111.54083553 64.91387906 -116.03793852 71.3253479 -120.5625 77.71875 C-124.99095391 83.97842945 -129.38758099 90.26013481 -133.77856445 96.54614258 C-136.58392523 100.55951259 -139.39717168 104.56652451 -142.23828125 108.5546875 C-148.40915925 117.22196614 -154.34396967 125.98748702 -160 135 C-163.60064671 134.45897018 -165.9215261 133.64824474 -168.8125 131.4375 C-169.41707031 130.98246094 -170.02164063 130.52742187 -170.64453125 130.05859375 C-171.31548828 129.53458984 -171.31548828 129.53458984 -172 129 C-169 128 -169 128 -165.1875 127.125 C-157.18904656 125.03781233 -154.21729095 122.32351675 -150 115.25390625 C-147.36344366 110.96435267 -144.42763821 106.92713489 -141.46386719 102.86010742 C-139.13926877 99.65339868 -137.00516717 96.41362239 -135 93 C-133.66072113 90.88632622 -132.30596192 88.78239778 -130.9375 86.6875 C-130.24527344 85.61886719 -129.55304687 84.55023437 -128.83984375 83.44921875 C-127.92912109 82.23685547 -127.92912109 82.23685547 -127 81 C-126.34 81 -125.68 81 -125 81 C-124.73445312 80.443125 -124.46890625 79.88625 -124.1953125 79.3125 C-120.13515391 71.45755266 -114.81850886 64.16891742 -109.8984375 56.8359375 C-108.74852185 55.11816227 -107.60577315 53.39551883 -106.4765625 51.6640625 C-102.93264702 46.24050124 -99.12255325 41.04998732 -95.19921875 35.89453125 C-93.9107922 34.19875137 -92.63583246 32.49229197 -91.39453125 30.76171875 C-81.86555176 17.7542943 -70.80068319 7.47306988 -56 1 C-55.11957031 0.61457031 -54.23914063 0.22914063 -53.33203125 -0.16796875 C-51.06892082 -0.97541016 -49.19848923 -1.32093889 -46.8125 -1.5 C-43.57226983 -1.79263162 -40.53854447 -2.30977644 -37.375 -3.0625 C-24.76671431 -5.67043468 -12.06149486 -4.09942831 0 0 Z " fill="#F1FBF4" transform="translate(816,810)"/>
<path d="M0 0 C2.85972567 1.33522358 5.25532618 2.84702362 7.73046875 4.80078125 C8.44211182 5.35910645 9.15375488 5.91743164 9.88696289 6.49267578 C10.64614014 7.09321777 11.40531738 7.69375977 12.1875 8.3125 C13.81472292 9.58772622 15.44233617 10.8624545 17.0703125 12.13671875 C17.8943457 12.78302246 18.71837891 13.42932617 19.56738281 14.09521484 C30.08510682 22.33079119 40.73007292 30.31785656 51.68359375 37.96484375 C55.40240749 40.56572669 59.07166001 43.22954304 62.73486328 45.90795898 C71.36228264 52.20975043 80.17973516 58.11592355 89.1953125 63.84570312 C92.83457208 66.17341136 96.41988248 68.58265569 100 71 C98.515 71.495 98.515 71.495 97 72 C94.6171875 70.77734375 94.6171875 70.77734375 91.875 68.9375 C90.89402344 68.28652344 89.91304688 67.63554688 88.90234375 66.96484375 C87.94457031 66.31644531 86.98679687 65.66804688 86 65 C85.21753906 64.48566406 84.43507813 63.97132812 83.62890625 63.44140625 C78.83831516 60.29037575 74.14301324 57.01097247 69.45703125 53.70703125 C67.2255768 52.15672029 64.96647875 50.66654471 62.6875 49.1875 C58.19801353 46.22906398 53.98017117 42.9537934 49.7800293 39.60229492 C46.55533836 37.063986 43.29335366 34.97292092 39.71826172 32.99609375 C36.948542 31.39045913 34.42965985 29.48683255 31.875 27.5625 C30.88242187 26.82128906 29.88984375 26.08007812 28.8671875 25.31640625 C26 23 26 23 23.4921875 20.484375 C20.90240826 17.90271419 18.21056618 15.82960278 15.25 13.6875 C9.9141304 9.74503199 4.72160307 5.67391011 0 1 C0 0.67 0 0.34 0 0 Z " fill="#EEFBF2" transform="translate(397,1038)"/>
<path d="M0 0 C8.40672773 0.54701311 16.72838119 1.40942122 25.078125 2.5 C27.01945313 2.7475 27.01945313 2.7475 29 3 C29.6466008 3.08716782 30.2932016 3.17433563 30.95939636 3.2641449 C37.04274911 4.02449176 43.03490273 4.12986251 49.16015625 4.09765625 C50.70587563 4.09553383 50.70587563 4.09553383 52.28282166 4.09336853 C55.54274519 4.08781447 58.80259757 4.0752707 62.0625 4.0625 C64.28580629 4.05747906 66.50911367 4.05291719 68.73242188 4.04882812 C74.1549718 4.03786013 79.57748081 4.0211684 85 4 C83.33505668 6.04455715 82.45379042 6.92236338 79.81265259 7.3742218 C78.96391571 7.37359238 78.11517883 7.37296295 77.24072266 7.37231445 C76.27607086 7.37854324 75.31141907 7.38477203 74.3175354 7.39118958 C73.27688934 7.38197983 72.23624329 7.37277008 71.1640625 7.36328125 C70.09255951 7.36377975 69.02105652 7.36427826 67.91708374 7.36479187 C65.64913073 7.36245012 63.38117519 7.35271569 61.11328125 7.33618164 C57.64559599 7.31263982 54.17868209 7.31561394 50.7109375 7.32226562 C48.50780792 7.31668714 46.30468158 7.3095762 44.1015625 7.30078125 C43.0649649 7.30169266 42.02836731 7.30260406 40.96035767 7.30354309 C39.98940155 7.29401108 39.01844543 7.28447906 38.01806641 7.2746582 C37.16773834 7.27005081 36.31741028 7.26544342 35.4413147 7.26069641 C32.67587482 6.96538821 30.54630795 6.09113069 28 5 C25.38367388 4.58420952 25.38367388 4.58420952 22.65625 4.4375 C21.65722656 4.36273437 20.65820312 4.28796875 19.62890625 4.2109375 C18.08009766 4.10652344 18.08009766 4.10652344 16.5 4 C14.44740042 3.8616225 12.39527161 3.71603323 10.34375 3.5625 C8.98540039 3.47162109 8.98540039 3.47162109 7.59960938 3.37890625 C4.81990569 2.97375034 2.55843283 2.13964456 0 1 C0 0.67 0 0.34 0 0 Z " fill="#C1F4D1" transform="translate(844,1242)"/>
<path d="M0 0 C3.48654476 1.4841373 5.64191072 3.46214052 8.25 6.1875 C11.62230677 9.63645011 15.06755363 12.86945311 18.7265625 16.0078125 C21.58104639 18.50916436 24.34925229 21.09974292 27.125 23.6875 C33.33672007 29.45791575 39.73271457 34.9869869 46.19873047 40.46923828 C49.88130622 43.5987788 53.54157998 46.75445216 57.20678711 49.90429688 C60.77846106 52.96831903 64.3785944 55.99488782 68 59 C61.71874491 59 55.70087377 52.62176336 51.3125 48.4375 C50.549375 47.633125 49.78625 46.82875 49 46 C44.58816459 41.95667056 39.98245276 38.17723337 35.3125 34.4375 C32.34470324 32.03305393 29.59974776 29.76667287 27.25 26.75 C24.92998778 23.91442951 22.67371636 22.23592937 19.6796875 20.19921875 C17.15742973 18.39844401 15.138159 16.2399761 13 14 C11.48190443 12.47643382 9.96081632 10.95584628 8.4375 9.4375 C6.95833333 7.95833333 5.47916667 6.47916667 4 5 C3.24847656 4.26910156 2.49695313 3.53820312 1.72265625 2.78515625 C0 1 0 1 0 0 Z " fill="#EEFBF2" transform="translate(329,978)"/>
<path d="M0 0 C4.94894058 -0.31588982 8.56846215 0.32862202 13.2109375 2.01171875 C16.79656471 3.28225612 20.42637888 4.38404956 24.0625 5.5 C29.44774322 7.17134606 34.7555297 8.93007624 40 11 C41.04027344 11.391875 42.08054687 11.78375 43.15234375 12.1875 C44.29832031 12.620625 45.44429687 13.05375 46.625 13.5 C48.22214844 14.10328125 48.22214844 14.10328125 49.8515625 14.71875 C52.9926477 15.997008 55.97331928 17.47404847 59 19 C60.98867713 19.69971973 62.98608051 20.37664397 65 21 C65 21.66 65 22.32 65 23 C60.59485688 22.28872252 56.56739565 20.82000892 52.41796875 19.234375 C50.91211255 18.6679603 49.40625307 18.10155435 47.90039062 17.53515625 C45.56177238 16.65019495 43.22372425 15.76374885 40.88598633 14.87646484 C27.51259888 9.80976912 14.0708389 4.76391478 0 2 C0 1.34 0 0.68 0 0 Z " fill="#EAFBEF" transform="translate(800,807)"/>
<path d="M0 0 C0.33 0 0.66 0 1 0 C1.20363159 1.14662109 1.20363159 1.14662109 1.41137695 2.31640625 C2.04430704 5.87774285 2.67841256 9.43886929 3.3125 13 C3.5396167 14.2789917 3.7667334 15.5579834 4.00073242 16.87573242 C5.45366493 25.0344351 5.45366493 25.0344351 7 33.17578125 C7.14010498 33.89314453 7.28020996 34.61050781 7.42456055 35.34960938 C7.78390047 37.1677925 8.15136617 38.98436457 8.51953125 40.80078125 C9.03652169 44.24318101 9.0837033 47.5241105 9 51 C5.79410226 48.44925847 5.45746207 46.22796226 4.9375 42.25 C4.27410404 37.67750223 3.31401876 33.43481332 2 29 C-0.2815143 19.82398264 -2.31930234 9.29464772 0 0 Z " fill="#E7F9ED" transform="translate(38,437)"/>
<path d="M0 0 C3.78871461 1.40496375 7.1262641 3.15544039 10.5859375 5.23828125 C11.67100586 5.88764648 12.75607422 6.53701172 13.87402344 7.20605469 C14.44503784 7.54971069 15.01605225 7.8933667 15.60437012 8.24743652 C18.61888144 10.06071548 21.64093543 11.86128766 24.6640625 13.66015625 C25.58336548 14.20722733 25.58336548 14.20722733 26.52124023 14.76535034 C35.16356121 19.89434155 43.93241868 24.80042657 52.70117188 29.70898438 C55.81082085 31.45535478 58.90657075 33.22508158 62 35 C59 36 59 36 57.17822266 35.33496094 C56.5135498 34.97176758 55.84887695 34.60857422 55.1640625 34.234375 C54.42929687 33.83863281 53.69453125 33.44289063 52.9375 33.03515625 C52.174375 32.61105469 51.41125 32.18695312 50.625 31.75 C49.49191406 31.13705078 49.49191406 31.13705078 48.3359375 30.51171875 C44.50245662 28.42743107 40.72480184 26.27401851 37 24 C33.84162408 22.16814197 30.68532662 20.3621388 27.45703125 18.65625 C21.80545211 15.65907968 16.55342676 12.41657172 11.3671875 8.671875 C8.4951978 6.64347303 5.52378216 4.82790377 2.49609375 3.04296875 C1 2 1 2 0 0 Z " fill="#EDFBF1" transform="translate(497,1110)"/>
<path d="M0 0 C6.56317934 6.35146388 12.59053624 13.19898788 18.3125 20.3125 C22.35107188 25.3231883 26.65331075 30.02842933 31.1027832 34.6730957 C33.40507273 37.10808638 34.92621801 38.77865403 36 42 C32.58663895 40.86221298 31.49976115 39.3512618 29.3125 36.59765625 C27.89620079 34.81350947 27.89620079 34.81350947 25.625 32.6875 C22.70758064 29.70061828 20.23168318 26.51748909 17.6953125 23.20703125 C14.83486759 19.48318016 11.9321195 15.908219 8.5625 12.625 C0 3.85365854 0 3.85365854 0 0 Z " fill="#EEFBF2" transform="translate(242,883)"/>
<path d="M0 0 C4.42794403 4.17824794 8.0602589 8.7923563 11.75 13.625 C17.05528249 20.51474137 22.43550737 27.31672049 28 34 C27.67 34.66 27.34 35.32 27 36 C21.15709234 29.80987037 15.85208183 23.61931219 10.95703125 16.640625 C8.40890011 13.2024281 5.54572824 10.13709013 2.56640625 7.0703125 C0.77445669 4.70190036 0.36108664 2.91920746 0 0 Z " fill="#EBFAF0" transform="translate(214,847)"/>
<path d="M0 0 C0.66 0.33 1.32 0.66 2 1 C1.54625 1.474375 1.0925 1.94875 0.625 2.4375 C-2.44979611 7.28621695 -3.36769732 13.30069158 -3 19 C-8.76294795 13.42915031 -8.76294795 13.42915031 -9.40625 9.55078125 C-9 7 -9 7 -7.03125 4.98046875 C-6.1959375 4.38878906 -5.360625 3.79710937 -4.5 3.1875 C-3.6646875 2.58292969 -2.829375 1.97835937 -1.96875 1.35546875 C-1.3190625 0.90816406 -0.669375 0.46085938 0 0 Z " fill="#F1FBF4" transform="translate(345,617)"/>
<path d="M0 0 C9.72075196 0.63251468 19.34851344 1.7190507 29 3 C29.71704102 3.09458496 30.43408203 3.18916992 31.17285156 3.28662109 C35.44946471 3.85114936 39.72509693 4.4226424 44 5 C44 5.66 44 6.32 44 7 C42.27119018 7.05449838 40.54187288 7.09301688 38.8125 7.125 C37.84957031 7.14820313 36.88664063 7.17140625 35.89453125 7.1953125 C33 7 33 7 30.65307617 6.02294922 C27.86790424 4.9490677 25.62527143 4.63613916 22.65625 4.4375 C21.65722656 4.36273437 20.65820312 4.28796875 19.62890625 4.2109375 C18.08009766 4.10652344 18.08009766 4.10652344 16.5 4 C14.44740042 3.8616225 12.39527161 3.71603323 10.34375 3.5625 C8.98540039 3.47162109 8.98540039 3.47162109 7.59960938 3.37890625 C4.81990569 2.97375034 2.55843283 2.13964456 0 1 C0 0.67 0 0.34 0 0 Z " fill="#E1F9E8" transform="translate(844,1242)"/>
<path d="M0 0 C9.38359911 1.41281155 18.45692246 3.87787389 27.60205078 6.35205078 C30.62479337 7.16882525 33.65067799 7.9735282 36.67675781 8.77783203 C39.45191864 9.51576333 42.22598501 10.25777476 45 11 C45 11.33 45 11.66 45 12 C43.27014758 11.88487847 41.54111249 11.75744323 39.8125 11.625 C38.36810547 11.52058594 38.36810547 11.52058594 36.89453125 11.4140625 C33.95911439 10.99415132 31.73961348 10.09920173 29 9 C25.66188317 8.41805227 22.32157398 7.99315364 18.9609375 7.5625 C16 7 16 7 13 5 C9.89079987 4.15739834 6.76261179 3.47520452 3.6171875 2.78125 C2.75351562 2.5234375 1.88984375 2.265625 1 2 C0.67 1.34 0.34 0.68 0 0 Z " fill="#DDF9E6" transform="translate(735,1218)"/>
<path d="M0 0 C7.70287788 0.57882273 15.13324449 1.91772027 22.6875 3.5 C32.29982577 5.50561482 32.29982577 5.50561482 42 7 C42 7.33 42 7.66 42 8 C34.04015924 8.25004735 26.77780654 7.66504363 19 6 C17.25004493 5.66643085 15.50004626 5.33309038 13.75 5 C2.76 2.76 2.76 2.76 0 0 Z " fill="#E7FAED" transform="translate(800,1234)"/>
<path d="M0 0 C5.05770941 4.18680281 9.58023385 8.58858245 14 13.4375 C18.558625 18.40823284 23.19350497 23.26746509 28 28 C27.67 28.66 27.34 29.32 27 30 C26.30777344 29.30648437 25.61554688 28.61296875 24.90234375 27.8984375 C22.90131518 25.89670459 20.89233286 23.90332055 18.87890625 21.9140625 C13.35610685 16.443971 7.95530499 10.9985271 3 5 C2.45601563 4.48695313 1.91203125 3.97390625 1.3515625 3.4453125 C0 2 0 2 0 0 Z " fill="#EBFAEF" transform="translate(278,925)"/>
<path d="M0 0 C3.3287521 1.10958403 4.01489699 1.92544504 6.1875 4.5625 C10.73466023 9.91718974 15.48382104 15.00802499 21 19.375 C21.66 19.91125 22.32 20.4475 23 21 C23 21.66 23 22.32 23 23 C18.57238086 21.60846256 16.0443745 19.47928514 13 16 C13 15.34 13 14.68 13 14 C11.68 13.34 10.36 12.68 9 12 C9 11.34 9 10.68 9 10 C8.01 9.67 7.02 9.34 6 9 C4.39453125 7.44140625 4.39453125 7.44140625 2.8125 5.5625 C2.01779297 4.63630859 2.01779297 4.63630859 1.20703125 3.69140625 C0 2 0 2 0 0 Z " fill="#F9FCFA" transform="translate(306,955)"/>
<path d="M0 0 C3.70159069 3.50642774 6.57811334 7.05655016 9.4375 11.3125 C12.82792172 16.31328328 16.31247011 21.21344159 20 26 C19.67 26.66 19.34 27.32 19 28 C13.71095411 22.37082254 9.33701542 16.32944233 5.015625 9.953125 C3.10738849 7.07634674 3.10738849 7.07634674 1.234375 4.796875 C0 3 0 3 0 0 Z " fill="#ECFAF0" transform="translate(194,819)"/>
<path d="M0 0 C0.33 0.99 0.66 1.98 1 3 C-0.01578125 2.98839844 -1.0315625 2.97679687 -2.078125 2.96484375 C-10.4440242 2.89961257 -18.6689427 3.11640301 -27 4 C-19.68223038 -1.94668424 -8.99652453 -0.10542802 0 0 Z " fill="#FBFDFC" transform="translate(799,806)"/>
<path d="M0 0 C3.61938095 2.64116988 5.98706523 4.97413046 8 9 C8 9.66 8 10.32 8 11 C8.99 11.33 9.98 11.66 11 12 C12.421875 13.99609375 12.421875 13.99609375 13.75 16.4375 C14.19859375 17.24058594 14.6471875 18.04367187 15.109375 18.87109375 C15.40328125 19.57363281 15.6971875 20.27617187 16 21 C15.67 21.66 15.34 22.32 15 23 C12.68148759 19.73339038 10.37124116 16.46102124 8.0625 13.1875 C7.40314453 12.25873047 6.74378906 11.32996094 6.06445312 10.37304688 C5.43603516 9.48037109 4.80761719 8.58769531 4.16015625 7.66796875 C3.57886963 6.84578857 2.99758301 6.0236084 2.39868164 5.17651367 C1 3 1 3 0 0 Z " fill="#ECFBF1" transform="translate(358,252)"/>
<path d="M0 0 C2.66648371 3.33105349 4.6669681 6.87197848 6.6875 10.625 C7.62142578 12.34589844 7.62142578 12.34589844 8.57421875 14.1015625 C10 17 10 17 10 19 C7 18 7 18 5.2109375 14.91015625 C4.58874231 13.63252896 3.97713959 12.34970094 3.375 11.0625 C2.90707031 10.09280273 2.90707031 10.09280273 2.4296875 9.10351562 C1.61184887 7.40614796 0.80523549 5.70338276 0 4 C-0.33 3.34 -0.66 2.68 -1 2 C-0.67 1.34 -0.34 0.68 0 0 Z " fill="#E5F9EC" transform="translate(131,714)"/>
<path d="M0 0 C5.44693314 -0.09688221 10.63904667 -0.12862175 16 1 C16 1.66 16 2.32 16 3 C14.27119018 3.05449838 12.54187288 3.09301688 10.8125 3.125 C9.84957031 3.14820313 8.88664063 3.17140625 7.89453125 3.1953125 C4.87187222 2.9913544 2.73230015 2.26874632 0 1 C0 0.67 0 0.34 0 0 Z " fill="#F4FDF7" transform="translate(872,1246)"/>
<path d="M0 0 C6.45353615 2.05764921 12.7361263 4.42383482 19 7 C19 7.33 19 7.66 19 8 C17.54077307 7.88590407 16.08259402 7.75834456 14.625 7.625 C13.40683594 7.52058594 13.40683594 7.52058594 12.1640625 7.4140625 C10 7 10 7 8 5 C6.824375 4.505 5.64875 4.01 4.4375 3.5 C1 2 1 2 0 0 Z " fill="#EDFBF1" transform="translate(645,1186)"/>
<path d="M0 0 C6.20477864 1.93624298 12.10825719 4.25609141 18 7 C14.16335698 8.12036424 12.65198635 7.74299348 9 6 C8.319375 5.68417969 7.63875 5.36835937 6.9375 5.04296875 C1.13921454 2.27842907 1.13921454 2.27842907 0 0 Z " fill="#EAFBEF" transform="translate(617,1174)"/>
<path d="M0 0 C5.68502535 1.64566523 10.76681636 4.29032784 16 7 C13.14998148 8.17114775 12.14331623 8.05939414 9.23828125 6.85546875 C8.27277344 6.30503906 7.30726563 5.75460937 6.3125 5.1875 C5.33925781 4.64480469 4.36601563 4.10210938 3.36328125 3.54296875 C1 2 1 2 0 0 Z " fill="#DDF9E5" transform="translate(575,1154)"/>
<path d="M0 0 C3.32368224 1.10789408 3.61563093 1.48436217 5.25 4.375 C5.60578125 4.98085938 5.9615625 5.58671875 6.328125 6.2109375 C7 8 7 8 6 11 C4.9944239 9.54550599 3.99569565 8.08627557 3 6.625 C2.443125 5.81289063 1.88625 5.00078125 1.3125 4.1640625 C0 2 0 2 0 0 Z " fill="#EAFAEF" transform="translate(382,287)"/>
<path d="M0 0 C-1.0625 1.5 -1.0625 1.5 -3 3 C-6.6875 3.1875 -6.6875 3.1875 -10 3 C-10 2.34 -10 1.68 -10 1 C-6.61981469 -0.04005702 -3.5219721 -0.08004482 0 0 Z " fill="#E1FAE8" transform="translate(929,1246)"/>
<path d="M0 0 C3.65392651 1.2179755 3.95831699 2.14396506 5.75 5.4375 C6.19859375 6.24058594 6.6471875 7.04367187 7.109375 7.87109375 C7.40328125 8.57363281 7.6971875 9.27617187 8 10 C7.67 10.66 7.34 11.32 7 12 C5.82767315 10.3790787 4.6622923 8.75313167 3.5 7.125 C2.8503125 6.22007812 2.200625 5.31515625 1.53125 4.3828125 C0 2 0 2 0 0 Z " fill="#F2FBF5" transform="translate(374,275)"/>
<path d="M0 0 C4.571279 0.54855348 8.67435795 1.41744803 13 3 C13 3.33 13 3.66 13 4 C3.40546697 3.40546697 3.40546697 3.40546697 0 0 Z " fill="#EBFBF0" transform="translate(721,1214)"/>
<path d="M0 0 C7.625 0.875 7.625 0.875 11 2 C11 2.66 11 3.32 11 4 C3.49230769 3.38461538 3.49230769 3.38461538 1 1.4375 C0.67 0.963125 0.34 0.48875 0 0 Z " fill="#F6FCF8" transform="translate(748,1222)"/>
<path d="M0 0 C1.4391134 0.28359887 2.87625518 0.57721399 4.3125 0.875 C5.11300781 1.03742188 5.91351562 1.19984375 6.73828125 1.3671875 C9 2 9 2 12 4 C10.37399059 3.9129995 8.74910322 3.8048219 7.125 3.6875 C6.22007812 3.62949219 5.31515625 3.57148437 4.3828125 3.51171875 C2 3 2 3 0 0 Z " fill="#EEFBF2" transform="translate(697,1206)"/>
<path d="M0 0 C2.31 0.66 4.62 1.32 7 2 C7 2.66 7 3.32 7 4 C2.545 3.01 2.545 3.01 -2 2 C-1.34 1.34 -0.68 0.68 0 0 Z " fill="#DEF9E6" transform="translate(814,810)"/>
<path d="M0 0 C4.21422242 2.88341534 5.76075855 5.04303419 7 10 C3.60582235 6.87378374 1.3937282 4.43458973 0 0 Z " fill="#EAFBEF" transform="translate(350,648)"/>
<path d="M0 0 C3.36720387 1.39332574 4.9859524 2.9789286 7 6 C6.67 6.66 6.34 7.32 6 8 C4.99403703 7.0479279 3.99538437 6.08812654 3 5.125 C2.443125 4.59132813 1.88625 4.05765625 1.3125 3.5078125 C0 2 0 2 0 0 Z " fill="#E6FAEB" transform="translate(235,875)"/>
</svg>
